<?xml version="1.0" encoding="UTF-8" standalone="no"?>
<svg
   width="32"
   height="32"
   viewBox="0 0 24 24"
   fill="none"
   stroke="currentColor"
   stroke-width="2"
   stroke-linecap="round"
   stroke-linejoin="round"
   class="feather feather-bell-off"
   version="1.1"
   id="svg4"
   sodipodi:docname="ds-bell-off-symbolic.svg"
   inkscape:version="1.4.2 (ebf0e940d0, 2025-05-08)"
   xmlns:inkscape="http://www.inkscape.org/namespaces/inkscape"
   xmlns:sodipodi="http://sodipodi.sourceforge.net/DTD/sodipodi-0.dtd"
   xmlns="http://www.w3.org/2000/svg"
   xmlns:svg="http://www.w3.org/2000/svg">
  <defs
     id="defs4" />
  <sodipodi:namedview
     id="namedview4"
     pagecolor="#ffffff"
     bordercolor="#000000"
     borderopacity="0.25"
     inkscape:showpageshadow="2"
     inkscape:pageopacity="0.0"
     inkscape:pagecheckerboard="0"
     inkscape:deskcolor="#d1d1d1"
     inkscape:zoom="24.59375"
     inkscape:cx="15.97967"
     inkscape:cy="16"
     inkscape:window-width="1908"
     inkscape:window-height="1019"
     inkscape:window-x="0"
     inkscape:window-y="0"
     inkscape:window-maximized="0"
     inkscape:current-layer="svg4" />
  <path
     style="baseline-shift:baseline;display:inline;overflow:visible;vector-effect:none;fill:#000000;stroke:none;stroke-linecap:butt;stroke-linejoin:miter;enable-background:accumulate;stop-color:#000000;stop-opacity:1;opacity:1"
     d="m 13.472656,20.033203 a 1,1 0 0 0 -0.607422,0.464844 c -0.409265,0.705529 -1.321203,0.705529 -1.730468,0 A 1,1 0 0 0 9.7675781,20.134766 1,1 0 0 0 9.4042969,21.501953 c 1.1321411,1.951687 4.0592651,1.951687 5.1914061,0 a 1,1 0 0 0 -0.363281,-1.367187 1,1 0 0 0 -0.759766,-0.101563 z"
     id="path1" />
  <path
     style="baseline-shift:baseline;display:inline;overflow:visible;vector-effect:none;fill:#000000;stroke:none;stroke-linecap:butt;stroke-linejoin:miter;enable-background:accumulate;stop-color:#000000;stop-opacity:1;opacity:1"
     d="M 18.015625,7 A 1,1 0 0 0 17,7.984375 c -0.02848,1.7823985 0.196279,3.559674 0.666016,5.279297 a 1,1 0 0 0 1.226562,0.701172 1,1 0 0 0 0.701172,-1.228516 C 19.173746,11.198768 18.974534,9.6093145 19,8.015625 A 1,1 0 0 0 18.015625,7 Z"
     id="path2" />
  <path
     style="baseline-shift:baseline;display:inline;overflow:visible;vector-effect:none;fill:#000000;stroke:none;stroke-linecap:butt;stroke-linejoin:miter;enable-background:accumulate;stop-color:#000000;stop-opacity:1;opacity:1"
     d="m 6.5546875,5.3046875 a 1,1 0 0 0 -1.25,0.6601562 C 5.1013068,6.6246315 4.9983746,7.3115323 5,8.0019531 4.9996662,11.357708 4.2874909,13.428337 3.6230469,14.646484 2.9584473,15.864917 2.4453125,16.167969 2.4453125,16.167969 A 1.0001,1.0001 0 0 0 3,18 h 14 a 1,1 0 0 0 1,-1 1,1 0 0 0 -1,-1 H 5.0527344 C 5.2045926,15.779588 5.2283214,15.876007 5.3769531,15.603516 6.2123535,14.071948 7,11.642857 7,8 a 1.0001,1.0001 0 0 0 0,-0.00195 C 6.9988485,7.5089094 7.0707561,7.0221226 7.2148437,6.5546875 a 1,1 0 0 0 -0.6601562,-1.25 z"
     id="path3" />
  <path
     style="baseline-shift:baseline;display:inline;overflow:visible;vector-effect:none;fill:#000000;stroke:none;stroke-linecap:butt;stroke-linejoin:miter;enable-background:accumulate;stop-color:#000000;stop-opacity:1;opacity:1"
     d="M 11.761719,1.0039062 C 10.524556,1.0340528 9.2675113,1.399182 8.1152344,2.1679688 A 1,1 0 0 0 7.8378906,3.5546875 1,1 0 0 0 9.2246094,3.8320313 C 12.596581,1.582288 17.006014,3.9444679 17,7.9980469 A 1,1 0 0 0 17.998047,9 1,1 0 0 0 19,8.0019531 C 19.006166,3.846362 15.473208,0.9134665 11.761719,1.0039062 Z"
     id="path4" />
  <path
     style="baseline-shift:baseline;display:inline;overflow:visible;vector-effect:none;fill:#000000;stroke:none;stroke-linecap:butt;stroke-linejoin:miter;enable-background:accumulate;stop-color:#000000;stop-opacity:1;opacity:1"
     d="m 0.29296875,0.29296875 a 1,1 0 0 0 0,1.41406245 L 22.292969,23.707031 a 1,1 0 0 0 1.414062,0 1,1 0 0 0 0,-1.414062 L 1.7070312,0.29296875 a 1,1 0 0 0 -1.41406245,0 z"
     id="line4" />
</svg>
