<?xml version="1.0" encoding="UTF-8" standalone="no"?>
<!-- Uploaded to: SVG Repo, www.svgrepo.com, Generator: SVG Repo Mixer Tools -->

<svg
   width="666.74402"
   height="666.74402"
   viewBox="0 0 20.002321 20.002321"
   fill="none"
   version="1.1"
   id="svg1"
   sodipodi:docname="ds-battery-3-symbolic.svg"
   inkscape:version="1.4.2 (ebf0e940d0, 2025-05-08)"
   xmlns:inkscape="http://www.inkscape.org/namespaces/inkscape"
   xmlns:sodipodi="http://sodipodi.sourceforge.net/DTD/sodipodi-0.dtd"
   xmlns="http://www.w3.org/2000/svg"
   xmlns:svg="http://www.w3.org/2000/svg">
  <defs
     id="defs1" />
  <sodipodi:namedview
     id="namedview1"
     pagecolor="#ffffff"
     bordercolor="#000000"
     borderopacity="0.25"
     inkscape:showpageshadow="2"
     inkscape:pageopacity="0.0"
     inkscape:pagecheckerboard="0"
     inkscape:deskcolor="#d1d1d1"
     inkscape:zoom="0.98125"
     inkscape:cx="398.47134"
     inkscape:cy="400"
     inkscape:window-width="1908"
     inkscape:window-height="1019"
     inkscape:window-x="0"
     inkscape:window-y="0"
     inkscape:window-maximized="0"
     inkscape:current-layer="svg1" />
  <path
     style="baseline-shift:baseline;display:inline;overflow:visible;vector-effect:none;fill:#000000;stroke-linecap:round;stroke-linejoin:round;enable-background:accumulate;stop-color:#000000;stop-opacity:1;opacity:1"
     d="m 4.09375,3.1757813 c -1.1410307,0 -1.8239644,-0.040858 -2.5195313,0.3066406 C 1.035559,3.7515117 0.59560504,4.1813125 0.31835938,4.7148437 -0.04073616,5.4058362 0.00195313,6.0863099 0.00195313,7.2050781 v 5.5917969 c 0,1.118758 -0.04271629,1.799222 0.31640625,2.490234 0.27723679,0.533472 0.71710652,0.965294 1.25585932,1.234375 0.6955666,0.347514 1.3784904,0.304688 2.5195313,0.304688 h 10.798828 c 1.14103,0 1.821992,0.04285 2.517578,-0.304688 0.538693,-0.269073 0.980583,-0.700807 1.257813,-1.234375 0.35914,-0.691017 0.316406,-1.371476 0.316406,-2.490234 V 11.646484 A 0.83217502,0.83217502 0 0 0 19.169922,11.832031 0.83217502,0.83217502 0 0 0 20.001953,11 V 9.0019531 A 0.83217502,0.83217502 0 0 0 19.169922,8.1699219 0.83217502,0.83217502 0 0 0 18.984375,8.3554688 V 7.2050781 c 0,-1.1187582 0.04271,-1.7992331 -0.316406,-2.4902344 C 18.39073,4.1812166 17.948756,3.7515035 17.410156,3.4824219 16.714574,3.134899 16.033608,3.1757812 14.892578,3.1757813 Z m 0,1.6640624 h 10.798828 c 1.14103,0 1.599385,0.042924 1.775391,0.1308594 0.228062,0.113939 0.41011,0.2935875 0.523437,0.5117188 0.08503,0.1636138 0.126953,0.603898 0.126953,1.7226562 v 5.5917969 c 0,1.118758 -0.04195,1.559097 -0.126953,1.722656 -0.113336,0.218131 -0.295468,0.39785 -0.523437,0.511719 -0.176002,0.08794 -0.634361,0.130859 -1.775391,0.130859 H 4.09375 c -1.1410409,0 -1.5993281,-0.0429 -1.7753906,-0.130859 C 2.0903878,14.917389 1.9083309,14.737758 1.7949219,14.519531 1.7099173,14.355968 1.6660156,13.915633 1.6660156,12.796875 V 7.2050781 c 0,-1.1187682 0.043875,-1.5590336 0.1289063,-1.7226562 C 1.908322,5.2641948 2.0902947,5.0846339 2.3183594,4.9707031 2.4944216,4.8827441 2.9527193,4.8398437 4.09375,4.8398437 Z M 5.4179687,7.171875 A 0.83217502,0.83217502 0 0 0 4.5859375,8.0039063 V 11.998047 A 0.83217502,0.83217502 0 0 0 5.4179687,12.830078 0.83217502,0.83217502 0 0 0 6.25,11.998047 V 8.0039063 A 0.83217502,0.83217502 0 0 0 5.4179687,7.171875 Z"
     id="path1" />
</svg>
