<?xml version="1.0" encoding="UTF-8" standalone="no"?>
<svg
   width="24"
   height="24"
   viewBox="0 0 24 24"
   fill="none"
   stroke="currentColor"
   stroke-width="2"
   stroke-linecap="round"
   stroke-linejoin="round"
   version="1.1"
   id="svg2"
   sodipodi:docname="ds-bell-symbolic.svg"
   inkscape:version="1.4.2 (ebf0e940d0, 2025-05-08)"
   xmlns:inkscape="http://www.inkscape.org/namespaces/inkscape"
   xmlns:sodipodi="http://sodipodi.sourceforge.net/DTD/sodipodi-0.dtd"
   xmlns="http://www.w3.org/2000/svg"
   xmlns:svg="http://www.w3.org/2000/svg">
  <defs
     id="defs2" />
  <sodipodi:namedview
     id="namedview2"
     pagecolor="#ffffff"
     bordercolor="#000000"
     borderopacity="0.25"
     inkscape:showpageshadow="2"
     inkscape:pageopacity="0.0"
     inkscape:pagecheckerboard="0"
     inkscape:deskcolor="#d1d1d1"
     inkscape:zoom="32.791667"
     inkscape:cx="11.984752"
     inkscape:cy="12"
     inkscape:window-width="1908"
     inkscape:window-height="1019"
     inkscape:window-x="0"
     inkscape:window-y="0"
     inkscape:window-maximized="0"
     inkscape:current-layer="svg2" />
  <path
     id="path2"
     style="baseline-shift:baseline;display:inline;overflow:visible;vector-effect:none;fill:#000000;stroke:none;stroke-linecap:butt;stroke-linejoin:miter;enable-background:accumulate;stop-color:#000000;stop-opacity:1;opacity:1"
     d="M 12,1 C 8.1458524,1 5,4.1458495 5,8 5,12.289916 3.8699217,13.260908 2.5429688,14.630859 a 1,1 0 0 0 0,0.02149 1,1 0 0 0 -0.019531,0 C 1.9639589,15.265555 1.8762862,16.140589 2.1699219,16.806641 2.4635575,17.472692 3.1699137,17.999393 4,18 h 16 c 0.829982,2.97e-4 1.535659,-0.525781 1.830078,-1.191406 0.294419,-0.665625 0.208969,-1.540407 -0.349609,-2.154297 a 1.0001,1.0001 0 0 0 -0.02344,-0.02344 C 20.127629,13.260476 19,12.290065 19,8 19,4.1458495 15.854148,1 12,1 Z m 0,2 c 2.773269,0 5,2.226729 5,5 0,4.707935 1.690886,6.651821 3.021484,8.023437 L 20,16 H 4 A 1,1 0 0 0 4,15.9941 C 5.3240466,14.625164 7,12.684907 7,8 7,5.226729 9.2267307,3 12,3 Z M 9.7675781,20.134766 A 1,1 0 0 0 9.4023438,21.5 c 1.1306812,1.958168 4.0646312,1.958168 5.1953122,0 A 1,1 0 0 0 14.232422,20.134766 1,1 0 0 0 12.865234,20.5 c -0.408964,0.708264 -1.321504,0.708264 -1.730468,0 A 1,1 0 0 0 9.7675781,20.134766 Z" />
</svg>
