<?xml version="1.0" encoding="UTF-8" standalone="no"?>
<!-- Uploaded to: SVG Repo, www.svgrepo.com, Generator: SVG Repo Mixer Tools -->

<svg
   width="666.74402"
   height="666.74402"
   viewBox="0 0 20.002321 20.002321"
   fill="none"
   version="1.1"
   id="svg1"
   sodipodi:docname="ds-battery-1-symbolic.svg"
   inkscape:version="1.4.2 (ebf0e940d0, 2025-05-08)"
   xmlns:inkscape="http://www.inkscape.org/namespaces/inkscape"
   xmlns:sodipodi="http://sodipodi.sourceforge.net/DTD/sodipodi-0.dtd"
   xmlns="http://www.w3.org/2000/svg"
   xmlns:svg="http://www.w3.org/2000/svg">
  <defs
     id="defs1" />
  <sodipodi:namedview
     id="namedview1"
     pagecolor="#ffffff"
     bordercolor="#000000"
     borderopacity="0.25"
     inkscape:showpageshadow="2"
     inkscape:pageopacity="0.0"
     inkscape:pagecheckerboard="0"
     inkscape:deskcolor="#d1d1d1"
     inkscape:zoom="0.98125"
     inkscape:cx="399.49045"
     inkscape:cy="400"
     inkscape:window-width="1908"
     inkscape:window-height="1019"
     inkscape:window-x="0"
     inkscape:window-y="0"
     inkscape:window-maximized="0"
     inkscape:current-layer="svg1" />
  <path
     style="baseline-shift:baseline;display:inline;overflow:visible;vector-effect:none;fill:#000000;stroke-linecap:round;stroke-linejoin:round;enable-background:accumulate;stop-color:#000000;stop-opacity:1;opacity:1"
     d="M 4.2695312,3.1757813 C 3.1285006,3.1757813 2.4455668,3.134923 1.75,3.4824219 1.2113401,3.7515118 0.76943311,4.1813126 0.4921875,4.7148437 0.13309202,5.4058362 0.17773438,6.0863098 0.17773437,7.2050781 v 5.5917969 c 0,1.118758 -0.0427162,1.799222 0.31640626,2.490234 C 0.77137736,15.820581 1.211247,16.252403 1.75,16.521484 c 0.6955665,0.347514 1.3784904,0.304688 2.5195312,0.304688 H 15.068359 c 1.141031,0 1.821992,0.04285 2.517578,-0.304688 0.538693,-0.269073 0.980584,-0.700806 1.257813,-1.234375 0.359142,-0.691017 0.316406,-1.371476 0.316406,-2.490234 V 11.646484 A 0.83217502,0.83217502 0 0 0 19.345703,11.832031 0.83217502,0.83217502 0 0 0 20.177734,11 V 9.0019531 A 0.83217502,0.83217502 0 0 0 19.345703,8.1699219 0.83217502,0.83217502 0 0 0 19.160156,8.3554688 V 7.2050781 c 0,-1.1187583 0.04271,-1.7992327 -0.316406,-2.4902344 C 18.566512,4.1812152 18.124537,3.7515035 17.585937,3.4824219 16.890355,3.1349 16.20939,3.1757813 15.068359,3.1757813 Z m 0,1.6640624 H 15.068359 c 1.141031,0 1.599383,0.042923 1.775391,0.1308594 0.228063,0.113939 0.410112,0.2935889 0.523437,0.5117188 0.08503,0.1636133 0.126954,0.6038979 0.126954,1.7226562 v 5.5917969 c 0,1.118758 -0.04195,1.559098 -0.126954,1.722656 -0.113334,0.21813 -0.295468,0.39785 -0.523437,0.511719 -0.176004,0.08794 -0.63436,0.130859 -1.775391,0.130859 H 4.2695312 c -1.1410409,0 -1.5993283,-0.0429 -1.7753906,-0.130859 C 2.266169,14.917389 2.0841122,14.737758 1.9707031,14.519531 1.8856986,14.355968 1.8417969,13.915633 1.8417969,12.796875 V 7.2050781 c 0,-1.1187683 0.043875,-1.5590336 0.1289062,-1.7226562 C 2.0841033,5.2641947 2.2660759,5.0846338 2.4941406,4.9707031 2.6702026,4.8827442 3.1285006,4.8398437 4.2695312,4.8398437 Z M 5.59375,7.171875 A 0.83217502,0.83217502 0 0 0 4.7617187,8.0039063 V 11.998047 A 0.83217502,0.83217502 0 0 0 5.59375,12.830078 0.83217502,0.83217502 0 0 0 6.4257812,11.998047 V 8.0039063 A 0.83217502,0.83217502 0 0 0 5.59375,7.171875 Z m 4.0742188,0 A 0.83217502,0.83217502 0 0 0 8.8359375,8.0039063 V 11.998047 A 0.83217502,0.83217502 0 0 0 9.6679688,12.830078 0.83217502,0.83217502 0 0 0 10.5,11.998047 V 8.0039063 A 0.83217502,0.83217502 0 0 0 9.6679688,7.171875 Z m 4.0742192,0 a 0.83217502,0.83217502 0 0 0 -0.832032,0.8320313 v 3.9941407 a 0.83217502,0.83217502 0 0 0 0.832032,0.832031 0.83217502,0.83217502 0 0 0 0.833984,-0.832031 V 8.0039063 A 0.83217502,0.83217502 0 0 0 13.742188,7.171875 Z"
     id="path1" />
</svg>
