<?xml version="1.0" encoding="UTF-8" standalone="no"?>
<svg
   width="24"
   height="24"
   viewBox="0 0 24 24"
   fill="none"
   stroke="currentColor"
   stroke-width="2"
   stroke-linecap="round"
   stroke-linejoin="round"
   version="1.1"
   id="svg4"
   sodipodi:docname="ds-cloud-moon-rain-symbolic.svg"
   inkscape:version="1.4.2 (ebf0e940d0, 2025-05-08)"
   xmlns:inkscape="http://www.inkscape.org/namespaces/inkscape"
   xmlns:sodipodi="http://sodipodi.sourceforge.net/DTD/sodipodi-0.dtd"
   xmlns="http://www.w3.org/2000/svg"
   xmlns:svg="http://www.w3.org/2000/svg">
  <defs
     id="defs4" />
  <sodipodi:namedview
     id="namedview4"
     pagecolor="#ffffff"
     bordercolor="#000000"
     borderopacity="0.25"
     inkscape:showpageshadow="2"
     inkscape:pageopacity="0.0"
     inkscape:pagecheckerboard="0"
     inkscape:deskcolor="#d1d1d1"
     inkscape:zoom="32.791667"
     inkscape:cx="11.984752"
     inkscape:cy="12"
     inkscape:window-width="1908"
     inkscape:window-height="1019"
     inkscape:window-x="0"
     inkscape:window-y="0"
     inkscape:window-maximized="0"
     inkscape:current-layer="svg4" />
  <path
     style="baseline-shift:baseline;display:inline;overflow:visible;vector-effect:none;fill:#000000;stroke:none;stroke-linecap:butt;stroke-linejoin:miter;enable-background:accumulate;stop-color:#000000;stop-opacity:1;opacity:1"
     d="m 11,19 a 1,1 0 0 0 -1,1 v 2 a 1,1 0 0 0 1,1 1,1 0 0 0 1,-1 v -2 a 1,1 0 0 0 -1,-1 z"
     id="path1" />
  <path
     style="baseline-shift:baseline;display:inline;overflow:visible;vector-effect:none;fill:#000000;stroke:none;stroke-linecap:butt;stroke-linejoin:miter;enable-background:accumulate;stop-color:#000000;stop-opacity:1;opacity:1"
     d="M 14.382813,2.1894531 C 11.433161,2.8902811 9.2647116,5.4212094 9.0234375,8.4433594 A 1,1 0 0 0 9.9394531,9.5195313 1,1 0 0 0 11.017578,8.6035156 c 0.157512,-1.9729561 1.479346,-3.591048 3.306641,-4.2519531 -0.681397,1.9336058 -0.124684,3.9180445 1.140625,5.1835938 1.253894,1.2541327 3.213729,1.8062967 5.130859,1.1542967 -0.471177,1.273736 -1.351836,2.35898 -2.615234,2.904297 a 1,1 0 0 0 -0.523438,1.314453 1,1 0 0 0 1.314453,0.521485 c 2.03035,-0.876354 3.529792,-2.662488 4.039063,-4.814454 0.177417,-0.7492269 -0.319119,-1.526218 -0.863281,-1.8066402 -0.543559,-0.280111 -1.158253,-0.3137599 -1.75586,-0.054687 h -0.002 C 18.901303,9.3101729 17.69713,8.9394731 16.878906,8.1210938 16.060251,7.3022831 15.690264,6.0974054 16.248047,4.8085937 16.506948,4.2105821 16.472326,3.5965693 16.191406,3.0527344 15.910487,2.5088994 15.133547,2.0136211 14.384766,2.1894531 a 1.0001,1.0001 0 0 0 -0.002,0 z"
     id="path2" />
  <path
     style="baseline-shift:baseline;display:inline;overflow:visible;vector-effect:none;fill:#000000;stroke:none;stroke-linecap:butt;stroke-linejoin:miter;enable-background:accumulate;stop-color:#000000;stop-opacity:1;opacity:1"
     d="M 7.2070312,11.009766 C 6.3218009,10.975283 5.4122716,11.137721 4.5410156,11.529297 1.0559917,13.0956 -0.09185351,17.541868 2.1992188,20.599609 a 1,1 0 0 0 1.4003906,0.201172 1,1 0 0 0 0.2011719,-1.40039 C 2.2508853,17.331847 3.003732,14.413109 5.3613281,13.353516 7.7189243,12.293922 10.402,13.66882 10.919922,16.201172 A 1.0001,1.0001 0 0 0 11.900391,17 H 13 a 1.0001,1.0001 0 0 0 0.002,0 c 0.967485,-0.0014 1.590928,0.553074 1.871094,1.287109 0.280166,0.734036 0.183328,1.563463 -0.539063,2.207032 a 1,1 0 0 0 -0.08008,1.410156 1,1 0 0 0 1.41211,0.08203 c 1.33772,-1.191759 1.621265,-2.983963 1.076171,-4.412109 C 16.197094,16.146073 14.789632,14.997367 12.998047,15 H 12.511719 C 11.656901,12.68303 9.5760953,11.102049 7.2070312,11.009766 Z"
     id="path3" />
  <path
     style="baseline-shift:baseline;display:inline;overflow:visible;vector-effect:none;fill:#000000;stroke:none;stroke-linecap:butt;stroke-linejoin:miter;enable-background:accumulate;stop-color:#000000;stop-opacity:1;opacity:1"
     d="m 7,18 a 1,1 0 0 0 -1,1 v 2 a 1,1 0 0 0 1,1 1,1 0 0 0 1,-1 V 19 A 1,1 0 0 0 7,18 Z"
     id="path4" />
</svg>
