<?xml version="1.0" encoding="UTF-8" standalone="no"?>
<svg
   width="24"
   height="24"
   viewBox="0 0 24 24"
   fill="none"
   stroke="currentColor"
   stroke-width="2"
   stroke-linecap="round"
   stroke-linejoin="round"
   version="1.1"
   id="svg2"
   sodipodi:docname="ds-cloud-moon-symbolic.svg"
   inkscape:version="1.4.2 (ebf0e940d0, 2025-05-08)"
   xmlns:inkscape="http://www.inkscape.org/namespaces/inkscape"
   xmlns:sodipodi="http://sodipodi.sourceforge.net/DTD/sodipodi-0.dtd"
   xmlns="http://www.w3.org/2000/svg"
   xmlns:svg="http://www.w3.org/2000/svg">
  <defs
     id="defs2" />
  <sodipodi:namedview
     id="namedview2"
     pagecolor="#ffffff"
     bordercolor="#000000"
     borderopacity="0.25"
     inkscape:showpageshadow="2"
     inkscape:pageopacity="0.0"
     inkscape:pagecheckerboard="0"
     inkscape:deskcolor="#d1d1d1"
     inkscape:zoom="32.791667"
     inkscape:cx="11.984752"
     inkscape:cy="12"
     inkscape:window-width="1908"
     inkscape:window-height="1019"
     inkscape:window-x="0"
     inkscape:window-y="0"
     inkscape:window-maximized="0"
     inkscape:current-layer="svg2" />
  <path
     style="baseline-shift:baseline;display:inline;overflow:visible;vector-effect:none;fill:#000000;stroke:none;stroke-linecap:butt;stroke-linejoin:miter;enable-background:accumulate;stop-color:#000000;stop-opacity:1;opacity:1"
     d="M 8.4257813,11.220703 C 6.31359,10.699985 3.9316009,11.272729 2.3535156,13.205078 -0.80265496,17.069777 2.0100045,22.998982 7,23 h 6 c 1.25,0 2.314774,-0.504756 2.998047,-1.273438 C 16.681319,20.957881 17,19.972222 17,19 17,18.027778 16.681319,17.042119 15.998047,16.273437 15.314774,15.504756 14.25,15 13,15 H 12.587891 C 11.879208,13.02575 10.2854,11.679154 8.4257813,11.220703 Z m -0.4550782,1.84961 c 1.3961841,0.344182 2.6050769,1.442962 2.9492189,3.128906 A 1.0001,1.0001 0 0 0 11.900391,17 H 13 c 0.749999,0 1.185226,0.245244 1.501953,0.601562 C 14.81868,17.957881 15,18.472222 15,19 15,19.527778 14.81868,20.042119 14.501953,20.398437 14.185226,20.754756 13.749999,21 13,21 H 7 C 3.5585817,20.999298 1.7257126,17.135966 3.9023438,14.470703 4.9906593,13.138072 6.574519,12.72613 7.9707031,13.070313 Z"
     id="path1" />
  <path
     style="baseline-shift:baseline;display:inline;overflow:visible;vector-effect:none;fill:#000000;stroke:none;stroke-linecap:butt;stroke-linejoin:miter;enable-background:accumulate;stop-color:#000000;stop-opacity:1;opacity:1"
     d="M 14.382813,2.1894531 C 11.433161,2.8902811 9.2647116,5.4212094 9.0234375,8.4433594 A 1,1 0 0 0 9.9394531,9.5195313 1,1 0 0 0 11.017578,8.6035156 c 0.157512,-1.9729561 1.479346,-3.591048 3.306641,-4.2519531 -0.681397,1.9336058 -0.124684,3.9180445 1.140625,5.1835938 1.253894,1.2541327 3.213729,1.8062967 5.130859,1.1542967 -0.471177,1.273736 -1.351836,2.35898 -2.615234,2.904297 a 1,1 0 0 0 -0.523438,1.314453 1,1 0 0 0 1.314453,0.521485 c 2.03035,-0.876354 3.529792,-2.662488 4.039063,-4.814454 0.177417,-0.7492269 -0.319119,-1.526218 -0.863281,-1.8066402 -0.543559,-0.280111 -1.158253,-0.3137599 -1.75586,-0.054687 h -0.002 C 18.901303,9.3101729 17.69713,8.9394731 16.878906,8.1210938 16.060251,7.3022831 15.690264,6.0974054 16.248047,4.8085937 16.506948,4.2105821 16.472326,3.5965693 16.191406,3.0527344 15.910487,2.5088994 15.133547,2.0136211 14.384766,2.1894531 a 1.0001,1.0001 0 0 0 -0.002,0 z"
     id="path2" />
</svg>
