<?xml version="1.0" encoding="UTF-8" standalone="no"?>
<svg
   width="24"
   height="24"
   viewBox="0 0 24 24"
   fill="none"
   stroke="currentColor"
   stroke-width="2"
   stroke-linecap="round"
   stroke-linejoin="round"
   class="lucide lucide-ethernet-port-icon lucide-ethernet-port"
   version="1.1"
   id="svg5"
   sodipodi:docname="ds-ethernet-port-symbolic.svg"
   inkscape:version="1.4.2 (ebf0e940d0, 2025-05-08)"
   xmlns:inkscape="http://www.inkscape.org/namespaces/inkscape"
   xmlns:sodipodi="http://sodipodi.sourceforge.net/DTD/sodipodi-0.dtd"
   xmlns="http://www.w3.org/2000/svg"
   xmlns:svg="http://www.w3.org/2000/svg">
  <defs
     id="defs5" />
  <sodipodi:namedview
     id="namedview5"
     pagecolor="#ffffff"
     bordercolor="#000000"
     borderopacity="0.25"
     inkscape:showpageshadow="2"
     inkscape:pageopacity="0.0"
     inkscape:pagecheckerboard="0"
     inkscape:deskcolor="#d1d1d1"
     inkscape:zoom="32.791667"
     inkscape:cx="11.984752"
     inkscape:cy="12"
     inkscape:window-width="1908"
     inkscape:window-height="1019"
     inkscape:window-x="0"
     inkscape:window-y="0"
     inkscape:window-maximized="0"
     inkscape:current-layer="svg5" />
  <path
     style="baseline-shift:baseline;display:inline;overflow:visible;vector-effect:none;fill:#000000;stroke:none;stroke-linecap:butt;stroke-linejoin:miter;enable-background:accumulate;stop-color:#000000;stop-opacity:1;opacity:1"
     d="M 4,3 C 2.3549904,3 1,4.3549904 1,6 v 9 c 0,1.64501 1.3549904,3 3,3 h 1.5859375 l 2.7070313,2.707031 A 1.0001,1.0001 0 0 0 9,21 h 6 a 1.0001,1.0001 0 0 0 0.707031,-0.292969 L 18.414062,18 H 20 c 1.64501,0 3,-1.35499 3,-3 V 6 C 23,4.3549904 21.64501,3 20,3 Z m 0,2 h 16 c 0.564129,0 1,0.4358706 1,1 v 9 c 0,0.564129 -0.435871,1 -1,1 h -2 a 1.0001,1.0001 0 0 0 -0.707031,0.292969 L 14.585938,19 H 9.4140625 L 6.7070312,16.292969 A 1.0001,1.0001 0 0 0 6,16 H 4 C 3.4358706,16 3,15.564129 3,15 V 6 C 3,5.4358706 3.4358706,5 4,5 Z"
     id="path1" />
  <path
     style="baseline-shift:baseline;display:inline;overflow:visible;vector-effect:none;fill:#000000;stroke:none;stroke-linecap:butt;stroke-linejoin:miter;enable-background:accumulate;stop-color:#000000;stop-opacity:1;opacity:1"
     d="M 6,7 A 1,1 0 0 0 5,8 V 9 A 1,1 0 0 0 6,10 1,1 0 0 0 7,9 V 8 A 1,1 0 0 0 6,7 Z"
     id="path2" />
  <path
     style="baseline-shift:baseline;display:inline;overflow:visible;vector-effect:none;fill:#000000;stroke:none;stroke-linecap:butt;stroke-linejoin:miter;enable-background:accumulate;stop-color:#000000;stop-opacity:1;opacity:1"
     d="M 10,7 A 1,1 0 0 0 9,8 v 1 a 1,1 0 0 0 1,1 1,1 0 0 0 1,-1 V 8 A 1,1 0 0 0 10,7 Z"
     id="path3" />
  <path
     style="baseline-shift:baseline;display:inline;overflow:visible;vector-effect:none;fill:#000000;stroke:none;stroke-linecap:butt;stroke-linejoin:miter;enable-background:accumulate;stop-color:#000000;stop-opacity:1;opacity:1"
     d="m 14,7 a 1,1 0 0 0 -1,1 v 1 a 1,1 0 0 0 1,1 1,1 0 0 0 1,-1 V 8 A 1,1 0 0 0 14,7 Z"
     id="path4" />
  <path
     style="baseline-shift:baseline;display:inline;overflow:visible;vector-effect:none;fill:#000000;stroke:none;stroke-linecap:butt;stroke-linejoin:miter;enable-background:accumulate;stop-color:#000000;stop-opacity:1;opacity:1"
     d="m 18,7 a 1,1 0 0 0 -1,1 v 1 a 1,1 0 0 0 1,1 1,1 0 0 0 1,-1 V 8 A 1,1 0 0 0 18,7 Z"
     id="path5" />
</svg>
