<?xml version="1.0" encoding="UTF-8" standalone="no"?>
<svg
   width="24"
   height="24"
   viewBox="0 0 24 24"
   fill="none"
   stroke="currentColor"
   stroke-width="2"
   stroke-linecap="round"
   stroke-linejoin="round"
   version="1.1"
   id="svg1"
   sodipodi:docname="ds-play-symbolic.svg"
   inkscape:version="1.4.2 (ebf0e940d0, 2025-05-08)"
   xmlns:inkscape="http://www.inkscape.org/namespaces/inkscape"
   xmlns:sodipodi="http://sodipodi.sourceforge.net/DTD/sodipodi-0.dtd"
   xmlns="http://www.w3.org/2000/svg"
   xmlns:svg="http://www.w3.org/2000/svg">
  <defs
     id="defs1" />
  <sodipodi:namedview
     id="namedview1"
     pagecolor="#ffffff"
     bordercolor="#000000"
     borderopacity="0.25"
     inkscape:showpageshadow="2"
     inkscape:pageopacity="0.0"
     inkscape:pagecheckerboard="0"
     inkscape:deskcolor="#d1d1d1"
     inkscape:zoom="32.791667"
     inkscape:cx="11.984752"
     inkscape:cy="12"
     inkscape:window-width="1908"
     inkscape:window-height="1019"
     inkscape:window-x="0"
     inkscape:window-y="0"
     inkscape:window-maximized="0"
     inkscape:current-layer="svg1" />
  <path
     style="baseline-shift:baseline;display:inline;overflow:visible;vector-effect:none;fill:#000000;stroke:none;stroke-linecap:butt;stroke-linejoin:miter;enable-background:accumulate;stop-color:#000000;stop-opacity:1;opacity:1"
     d="M 6.9804687,2.0117188 C 5.4359281,2.0486236 3.999496,3.2995207 4,5 v 14 c -6.72e-4,2.267306 2.5534385,3.734519 4.5117188,2.591797 l 12.0000002,-7 c 1.94662,-1.134053 1.944924,-4.053304 -0.002,-5.185547 L 8.5117188,2.4082031 C 8.0221487,2.1225226 7.4953156,1.9994171 6.9804687,2.0117188 Z M 6.4863281,4.1054687 C 6.7737586,3.9403491 7.1495066,3.9279616 7.5039062,4.1347656 a 1.0001,1.0001 0 0 0 0,0.00195 L 19.501953,11.132813 a 1.0001,1.0001 0 0 0 0.002,0.002 c 0.704524,0.408802 0.703814,1.318491 0,1.728515 l -11.9999998,7 a 1.0001,1.0001 0 0 0 0,0.002 C 6.795107,20.278843 5.9997568,19.820651 6,19 V 5 C 5.9998784,4.5896745 6.1988976,4.2705884 6.4863281,4.1054687 Z"
     id="path1" />
</svg>
