<?xml version="1.0" encoding="UTF-8" standalone="no"?>
<svg
   width="24"
   height="24"
   viewBox="0 0 24 24"
   fill="none"
   stroke="currentColor"
   stroke-width="2"
   stroke-linecap="round"
   stroke-linejoin="round"
   version="1.1"
   id="svg4"
   sodipodi:docname="ds-refresh-cw-symbolic.svg"
   inkscape:version="1.4.2 (ebf0e940d0, 2025-05-08)"
   xmlns:inkscape="http://www.inkscape.org/namespaces/inkscape"
   xmlns:sodipodi="http://sodipodi.sourceforge.net/DTD/sodipodi-0.dtd"
   xmlns="http://www.w3.org/2000/svg"
   xmlns:svg="http://www.w3.org/2000/svg">
  <defs
     id="defs4" />
  <sodipodi:namedview
     id="namedview4"
     pagecolor="#ffffff"
     bordercolor="#000000"
     borderopacity="0.25"
     inkscape:showpageshadow="2"
     inkscape:pageopacity="0.0"
     inkscape:pagecheckerboard="0"
     inkscape:deskcolor="#d1d1d1"
     inkscape:zoom="32.791667"
     inkscape:cx="11.984752"
     inkscape:cy="12"
     inkscape:window-width="1908"
     inkscape:window-height="1019"
     inkscape:window-x="0"
     inkscape:window-y="0"
     inkscape:window-maximized="0"
     inkscape:current-layer="svg4" />
  <path
     style="baseline-shift:baseline;display:inline;overflow:visible;vector-effect:none;fill:#000000;stroke:none;stroke-linecap:butt;stroke-linejoin:miter;enable-background:accumulate;stop-color:#000000;stop-opacity:1;opacity:1"
     d="M 12,2 C 6.4889971,2 2,6.4889971 2,12 a 1,1 0 0 0 1,1 1,1 0 0 0 1,-1 c 0,-4.4287895 3.5678221,-7.9978523 7.996094,-8 2.258328,0.0085 4.425152,0.8893359 6.048828,2.4589844 l 2.248047,2.2480469 a 1,1 0 0 0 1.414062,0 1,1 0 0 0 0,-1.4140626 L 19.447266,5.0332031 a 1.0001,1.0001 0 0 0 -0.01172,-0.011719 C 17.441284,3.0935803 14.777674,2.0104346 12.003906,2 A 1.0001,1.0001 0 0 0 12,2 Z"
     id="path1" />
  <path
     style="baseline-shift:baseline;display:inline;overflow:visible;vector-effect:none;fill:#000000;stroke:none;stroke-linecap:butt;stroke-linejoin:miter;enable-background:accumulate;stop-color:#000000;stop-opacity:1;opacity:1"
     d="m 21,2 a 1,1 0 0 0 -1,1 v 4 h -4 a 1,1 0 0 0 -1,1 1,1 0 0 0 1,1 h 5 A 1.0001,1.0001 0 0 0 22,8 V 3 A 1,1 0 0 0 21,2 Z"
     id="path2" />
  <path
     style="baseline-shift:baseline;display:inline;overflow:visible;vector-effect:none;fill:#000000;stroke:none;stroke-linecap:butt;stroke-linejoin:miter;enable-background:accumulate;stop-color:#000000;stop-opacity:1;opacity:1"
     d="m 21,11 a 1,1 0 0 0 -1,1 c 0,4.428789 -3.567822,7.997852 -7.996094,8 -2.258328,-0.0085 -4.4251522,-0.889336 -6.0488279,-2.458984 L 3.7070313,15.292969 a 1,1 0 0 0 -1.4140625,0 1,1 0 0 0 0,1.414062 l 2.2597656,2.259766 a 1.0001,1.0001 0 0 0 0.011719,0.01172 C 6.5587156,20.90642 9.2223259,21.989565 11.996094,22 A 1.0001,1.0001 0 0 0 12,22 c 5.511003,0 10,-4.488997 10,-10 a 1,1 0 0 0 -1,-1 z"
     id="path3" />
  <path
     style="baseline-shift:baseline;display:inline;overflow:visible;vector-effect:none;fill:#000000;stroke:none;stroke-linecap:butt;stroke-linejoin:miter;enable-background:accumulate;stop-color:#000000;stop-opacity:1;opacity:1"
     d="m 3,15 a 1.0001,1.0001 0 0 0 -1,1 v 5 a 1,1 0 0 0 1,1 1,1 0 0 0 1,-1 V 17 H 8 A 1,1 0 0 0 9,16 1,1 0 0 0 8,15 Z"
     id="path4" />
</svg>
