<?xml version="1.0" encoding="UTF-8" standalone="no"?>
<!-- Uploaded to: SVG Repo, www.svgrepo.com, Generator: SVG Repo Mixer Tools -->

<svg
   width="800px"
   height="800px"
   viewBox="0 0 24 24"
   fill="none"
   version="1.1"
   id="svg1"
   sodipodi:docname="ds-speedometer-2-symbolic.svg"
   inkscape:version="1.4.2 (ebf0e940d0, 2025-05-08)"
   xmlns:inkscape="http://www.inkscape.org/namespaces/inkscape"
   xmlns:sodipodi="http://sodipodi.sourceforge.net/DTD/sodipodi-0.dtd"
   xmlns="http://www.w3.org/2000/svg"
   xmlns:svg="http://www.w3.org/2000/svg">
  <defs
     id="defs1" />
  <sodipodi:namedview
     id="namedview1"
     pagecolor="#ffffff"
     bordercolor="#000000"
     borderopacity="0.25"
     inkscape:showpageshadow="2"
     inkscape:pageopacity="0.0"
     inkscape:pagecheckerboard="0"
     inkscape:deskcolor="#d1d1d1"
     inkscape:zoom="0.76757812"
     inkscape:cx="323.09415"
     inkscape:cy="302.90077"
     inkscape:window-width="1908"
     inkscape:window-height="1019"
     inkscape:window-x="0"
     inkscape:window-y="0"
     inkscape:window-maximized="0"
     inkscape:current-layer="svg1" />
  <path
     style="baseline-shift:baseline;display:inline;overflow:visible;vector-effect:none;fill:#000000;stroke-linecap:round;stroke-linejoin:round;enable-background:accumulate;stop-color:#000000;stop-opacity:1;opacity:1"
     d="m 11.986328,1.1054687 c -2.7914408,4.4e-6 -5.5824577,1.0629268 -7.7070311,3.1875 -4.24917851,4.249177 -4.24917747,11.1648843 0,15.4140623 2.1063706,2.10637 4.8692428,3.155777 7.6367191,3.173828 a 0.89999998,0.89999998 0 0 0 0.07031,0.0293 0.89999998,0.89999998 0 0 0 0.01953,-0.01953 c 2.784787,-0.005 5.56797,-1.064064 7.6875,-3.183594 2.119513,-2.119513 3.178545,-4.90271 3.183594,-7.6875 A 0.89999998,0.89999998 0 0 0 22.896484,12 a 0.89999998,0.89999998 0 0 0 -0.0293,-0.07031 C 22.849141,9.1622085 21.799732,6.3993411 19.693359,4.2929687 17.568768,2.1683774 14.777769,1.1054644 11.986328,1.1054687 Z m -0.851562,1.9550782 -0.04687,6.4140625 c -0.398578,0.1384613 -0.836229,0.1584939 -1.1523441,0.4746094 -1.1249842,1.1249832 -1.1249819,2.9765802 0,4.1015622 1.1249821,1.124984 2.9765791,1.124982 4.1015621,0 1.124982,-1.124984 1.124982,-2.976579 0,-4.1015622 -0.31501,-0.3150095 -0.751428,-0.3340604 -1.148437,-0.4726563 l 0.04492,-6.3964844 c 1.701484,0.1810466 3.319268,0.8348875 4.722656,1.9765625 l -1.003906,1.0039063 a 0.89999998,0.89999998 0 0 0 0,1.2734375 0.89999998,0.89999998 0 0 0 1.273437,0 l 1.003906,-1.0039063 c 1.15314,1.416833 1.812586,3.0507401 1.986329,4.7695309 H 19.488281 A 0.89999998,0.89999998 0 0 0 18.587891,12 a 0.89999998,0.89999998 0 0 0 0.90039,0.900391 h 1.427735 c -0.173756,1.718923 -0.833026,3.354582 -1.986329,4.771484 l -1.003906,-1.003906 a 0.89999998,0.89999998 0 0 0 -1.273437,0 0.89999998,0.89999998 0 0 0 0,1.271484 l 1.005859,1.003906 c -1.416912,1.153315 -3.052563,1.812575 -4.771484,1.986328 V 19.5 A 0.89999998,0.89999998 0 0 0 11.986328,18.599609 0.89999998,0.89999998 0 0 0 11.085938,19.5 v 1.429687 C 9.3670183,20.755928 7.7313543,20.096665 6.3144531,18.943359 l 1.0058594,-1.003906 a 0.89999998,0.89999998 0 0 0 0,-1.271484 0.89999998,0.89999998 0 0 0 -1.2734375,0 L 5.0429687,17.671875 C 3.9020387,16.270181 3.2487053,14.654667 3.0664063,12.955078 H 4.4863281 A 0.89999998,0.89999998 0 0 0 5.3867187,12.056641 0.89999998,0.89999998 0 0 0 4.4863281,11.15625 H 3.0449219 C 3.2095331,9.417377 3.8769191,7.7627665 5.0429687,6.3300781 L 6.046875,7.3339844 a 0.89999998,0.89999998 0 0 0 1.2734375,0 0.89999998,0.89999998 0 0 0 0,-1.2734375 L 6.3164062,5.0566406 C 7.7465472,3.8932014 9.3993282,3.2263829 11.134766,3.0605469 Z m 0.851562,7.8339841 c 0.27962,0 0.558764,0.109546 0.777344,0.328125 0.437156,0.437157 0.437159,1.117528 0,1.554688 -0.437158,0.437158 -1.117532,0.437156 -1.554688,0 -0.437157,-0.437158 -0.437157,-1.117531 0,-1.554688 0.21858,-0.218579 0.497725,-0.328125 0.777344,-0.328125 z"
     id="path1" />
</svg>
