<?xml version="1.0" encoding="UTF-8" standalone="no"?>
<!-- Uploaded to: SVG Repo, www.svgrepo.com, Generator: SVG Repo Mixer Tools -->

<svg
   width="800px"
   height="800px"
   viewBox="0 0 24 24"
   fill="none"
   version="1.1"
   id="svg1"
   sodipodi:docname="ds-speedometer-3-symbolic.svg"
   inkscape:version="1.4.2 (ebf0e940d0, 2025-05-08)"
   xmlns:inkscape="http://www.inkscape.org/namespaces/inkscape"
   xmlns:sodipodi="http://sodipodi.sourceforge.net/DTD/sodipodi-0.dtd"
   xmlns="http://www.w3.org/2000/svg"
   xmlns:svg="http://www.w3.org/2000/svg">
  <defs
     id="defs1" />
  <sodipodi:namedview
     id="namedview1"
     pagecolor="#ffffff"
     bordercolor="#000000"
     borderopacity="0.25"
     inkscape:showpageshadow="2"
     inkscape:pageopacity="0.0"
     inkscape:pagecheckerboard="0"
     inkscape:deskcolor="#d1d1d1"
     inkscape:zoom="0.76757812"
     inkscape:cx="323.09415"
     inkscape:cy="302.90077"
     inkscape:window-width="1908"
     inkscape:window-height="1019"
     inkscape:window-x="0"
     inkscape:window-y="0"
     inkscape:window-maximized="0"
     inkscape:current-layer="svg1" />
  <path
     style="baseline-shift:baseline;display:inline;overflow:visible;vector-effect:none;fill:#000000;stroke-linecap:round;stroke-linejoin:round;enable-background:accumulate;stop-color:#000000;stop-opacity:1;opacity:1"
     d="m 12.005859,1.109375 c -2.998563,5e-7 -5.7165581,1.2186831 -7.6894528,3.1855469 a 0.89999998,0.89999998 0 0 0 -0.025391,0 0.89999998,0.89999998 0 0 0 0,0.027344 C 2.3259437,6.294905 1.1074223,9.0107795 1.1074219,12.007813 c 8e-7,2.997011 1.2185195,5.714854 3.1835937,7.687499 a 0.89999998,0.89999998 0 0 0 0,0.02734 0.89999998,0.89999998 0 0 0 0.025391,0 c 1.9728936,1.966869 4.6908867,3.185547 7.6894528,3.185547 6.009252,0 10.900391,-4.89119 10.900391,-10.90039 1e-6,-6.0092449 -4.891145,-10.8984371 -10.900391,-10.898438 z M 11.107422,3.0898438 V 4.5078125 A 0.89999998,0.89999998 0 0 0 12.005859,5.4082031 0.89999998,0.89999998 0 0 0 12.90625,4.5078125 V 3.0898438 c 1.797036,0.1845788 3.400246,0.865215 4.730469,1.9374999 L 16.632812,6.03125 a 0.89999998,0.89999998 0 0 0 0,1.2714844 0.89999998,0.89999998 0 0 0 1.273438,0 l 1.019531,-1.0195313 c 1.11326,1.3460776 1.811534,2.9884099 2,4.8261719 h -1.419922 a 0.89999998,0.89999998 0 0 0 -0.898437,0.898438 0.89999998,0.89999998 0 0 0 0.898437,0.90039 h 1.419922 c -0.188449,1.834703 -0.88565,3.475518 -1.996094,4.820313 l -4.503906,-4.56836 c 0.184532,-0.380248 0.480469,-0.70451 0.480469,-1.152343 10e-7,-1.590968 -1.309425,-2.898438 -2.900391,-2.898438 -1.590966,-1.4e-6 -2.8984357,1.307472 -2.8984371,2.898438 2.9e-6,1.590965 1.3074731,2.900389 2.8984371,2.90039 0.444977,-1e-6 0.766136,-0.296185 1.144532,-0.478515 l 4.49414,4.55664 c -1.331424,1.075354 -2.938203,1.756513 -4.738281,1.941406 v -1.419922 a 0.89999998,0.89999998 0 0 0 -0.900391,-0.898437 0.89999998,0.89999998 0 0 0 -0.898437,0.898437 v 1.419922 C 9.2894265,20.74139 7.6667277,20.052071 6.328125,18.958984 l 1.0097656,-1.009765 a 0.89999998,0.89999998 0 0 0 0,-1.271485 0.89999998,0.89999998 0 0 0 -1.2734375,0 L 5.0566406,17.685547 C 3.964369,16.347584 3.2745051,14.725015 3.0878906,12.908203 H 4.5058594 A 0.89999998,0.89999998 0 0 0 5.40625,12.007813 0.89999998,0.89999998 0 0 0 4.5058594,11.109375 H 3.0878906 C 3.2742712,9.2919772 3.9640783,7.6703478 5.0566406,6.3320312 l 1.0097656,1.0097657 a 0.89999998,0.89999998 0 0 0 1.2734375,0 0.89999998,0.89999998 0 0 0 0,-1.2714844 L 6.328125,5.0585937 C 7.6667277,3.965513 9.2894251,3.2761859 11.107422,3.0898438 Z m 0.898437,7.8183592 c 0.618235,0 1.101563,0.481377 1.101563,1.09961 0,0.618235 -0.483327,1.101561 -1.101563,1.101562 -0.618233,-10e-7 -1.099608,-0.483324 -1.099609,-1.101562 10e-7,-0.618235 0.481377,-1.09961 1.099609,-1.09961 z"
     id="path1" />
</svg>
