<?xml version="1.0" encoding="UTF-8" standalone="no"?>
<!-- Uploaded to: SVG Repo, www.svgrepo.com, Generator: SVG Repo Mixer Tools -->

<svg
   width="800px"
   height="800px"
   viewBox="0 0 24 24"
   fill="none"
   version="1.1"
   id="svg1"
   sodipodi:docname="ds-speedometer-1-symbolic.svg"
   inkscape:version="1.4.2 (ebf0e940d0, 2025-05-08)"
   xmlns:inkscape="http://www.inkscape.org/namespaces/inkscape"
   xmlns:sodipodi="http://sodipodi.sourceforge.net/DTD/sodipodi-0.dtd"
   xmlns="http://www.w3.org/2000/svg"
   xmlns:svg="http://www.w3.org/2000/svg">
  <defs
     id="defs1" />
  <sodipodi:namedview
     id="namedview1"
     pagecolor="#ffffff"
     bordercolor="#000000"
     borderopacity="0.25"
     inkscape:showpageshadow="2"
     inkscape:pageopacity="0.0"
     inkscape:pagecheckerboard="0"
     inkscape:deskcolor="#d1d1d1"
     inkscape:zoom="0.76757812"
     inkscape:cx="323.09415"
     inkscape:cy="302.90077"
     inkscape:window-width="1908"
     inkscape:window-height="1019"
     inkscape:window-x="0"
     inkscape:window-y="0"
     inkscape:window-maximized="0"
     inkscape:current-layer="svg1" />
  <path
     style="baseline-shift:baseline;display:inline;overflow:visible;vector-effect:none;fill:#000000;stroke-linecap:round;stroke-linejoin:round;enable-background:accumulate;stop-color:#000000;stop-opacity:1;opacity:1"
     d="m 11.986328,1.0996094 c -2.9970093,10e-8 -5.712902,1.220476 -7.6855468,3.1855468 a 0.89999998,0.89999998 0 0 0 -0.029297,0 0.89999998,0.89999998 0 0 0 0,0.029297 C 2.3064135,6.2870978 1.0859374,9.0029901 1.0859375,12 c 0,6.009252 4.8911902,10.900391 10.9003905,10.900391 6.009245,1e-6 10.90039,-4.891145 10.900391,-10.900391 -1e-6,-2.9970091 -1.220479,-5.7129009 -3.185547,-7.6855469 a 0.89999998,0.89999998 0 0 0 0,-0.029297 0.89999998,0.89999998 0 0 0 -0.0293,0 C 17.699236,2.3200845 14.983361,1.0996095 11.986328,1.0996094 Z m -0.90039,1.9824219 V 4.5 A 0.89999998,0.89999998 0 0 0 11.986328,5.4003906 0.89999998,0.89999998 0 0 0 12.886719,4.5 V 3.0820313 c 1.816507,0.1866009 3.439517,0.8748314 4.777343,1.9667968 l -1.011718,1.0117188 a 0.89999998,0.89999998 0 0 0 0,1.2734375 0.89999998,0.89999998 0 0 0 1.273437,0 L 18.9375,6.3222656 c 1.092671,1.3381009 1.780126,2.9601488 1.966797,4.7773434 H 19.486328 A 0.89999998,0.89999998 0 0 0 18.585937,12 a 0.89999998,0.89999998 0 0 0 0.900391,0.900391 h 1.417969 c -0.184595,1.796997 -0.863282,3.40027 -1.935547,4.730468 l -1.003906,-1.003906 a 0.89999998,0.89999998 0 0 0 -1.273438,0 0.89999998,0.89999998 0 0 0 0,1.273438 l 1.019531,1.019531 c -1.345484,1.112366 -2.987635,1.809386 -4.824218,1.998047 V 19.5 A 0.89999998,0.89999998 0 0 0 11.986328,18.599609 0.89999998,0.89999998 0 0 0 11.085938,19.5 v 1.417969 C 9.2512739,20.729503 7.6103949,20.034252 6.265625,18.923828 l 4.570313,-4.503906 c 0.379829,0.184032 0.703203,0.480469 1.15039,0.480469 1.590967,0 2.900391,-1.309425 2.900391,-2.900391 0,-1.590966 -1.309424,-2.9003906 -2.900391,-2.9003906 C 10.395362,9.0996108 9.0859389,10.409035 9.0859375,12 c 8e-7,0.445623 0.2956881,0.767669 0.4785156,1.146484 L 5.0078125,17.638672 C 3.9324783,16.307272 3.2532686,14.70043 3.0683594,12.900391 H 4.4863281 A 0.89999998,0.89999998 0 0 0 5.3867187,12 0.89999998,0.89999998 0 0 0 4.4863281,11.099609 H 3.0683594 C 3.2550325,9.282416 3.9424793,7.6603666 5.0351562,6.3222656 l 1.0097657,1.0097656 a 0.89999998,0.89999998 0 0 0 1.2734375,0 0.89999998,0.89999998 0 0 0 0,-1.2734375 L 6.3085937,5.0488281 C 7.6464237,3.9568623 9.2694463,3.2686324 11.085938,3.0820313 Z m 0.90039,7.8183597 c 0.618235,0 1.099609,0.481375 1.09961,1.099609 0,0.618232 -0.481377,1.099609 -1.09961,1.099609 -0.618235,0 -1.099608,-0.481375 -1.099609,-1.099609 0,-0.618235 0.481373,-1.099609 1.099609,-1.099609 z"
     id="path1" />
</svg>
