<?xml version="1.0" encoding="UTF-8" standalone="no"?>
<svg
   width="24"
   height="24"
   viewBox="0 0 24 24"
   fill="none"
   stroke="currentColor"
   stroke-width="2"
   stroke-linecap="round"
   stroke-linejoin="round"
   version="1.1"
   id="svg1"
   sodipodi:docname="ds-video-symbolic.svg"
   inkscape:version="1.4.2 (ebf0e940d0, 2025-05-08)"
   xmlns:inkscape="http://www.inkscape.org/namespaces/inkscape"
   xmlns:sodipodi="http://sodipodi.sourceforge.net/DTD/sodipodi-0.dtd"
   xmlns="http://www.w3.org/2000/svg"
   xmlns:svg="http://www.w3.org/2000/svg">
  <defs
     id="defs1" />
  <sodipodi:namedview
     id="namedview1"
     pagecolor="#ffffff"
     bordercolor="#000000"
     borderopacity="0.25"
     inkscape:showpageshadow="2"
     inkscape:pageopacity="0.0"
     inkscape:pagecheckerboard="0"
     inkscape:deskcolor="#d1d1d1"
     inkscape:zoom="32.791667"
     inkscape:cx="11.984752"
     inkscape:cy="12"
     inkscape:window-width="1908"
     inkscape:window-height="1019"
     inkscape:window-x="0"
     inkscape:window-y="0"
     inkscape:window-maximized="0"
     inkscape:current-layer="svg1" />
  <path
     style="baseline-shift:baseline;display:inline;overflow:visible;vector-effect:none;fill:#000000;stroke:none;stroke-linecap:butt;stroke-linejoin:miter;enable-background:accumulate;stop-color:#000000;stop-opacity:1;opacity:1"
     d="m 20.744141,6.5742187 -5.248047,3.0625001 a 1,1 0 0 0 -0.359375,1.3671872 1,1 0 0 0 1.367187,0.359375 L 21,8.7402344 v 6.3925786 l -4.445313,-2.964844 a 1,1 0 0 0 -1.386718,0.277344 1,1 0 0 0 0.277344,1.386718 l 5.222656,3.482422 a 1.0001,1.0001 0 0 0 0.002,0 C 21.620318,17.946896 22.99941,17.208 23,16.066406 V 7.8710937 7.8691406 C 22.998872,6.7608495 21.701728,6.0154342 20.744141,6.5742187 Z"
     id="path1" />
  <path
     style="baseline-shift:baseline;display:inline;overflow:visible;vector-effect:none;fill:#000000;stroke:none;stroke-linecap:butt;stroke-linejoin:miter;enable-background:accumulate;stop-color:#000000;stop-opacity:1;opacity:1"
     d="M 4,5 C 2.3552972,5 1,6.3552972 1,8 v 8 c 0,1.644703 1.3552972,3 3,3 h 10 c 1.644703,0 3,-1.355297 3,-3 V 8 C 17,6.3552972 15.644703,5 14,5 Z m 0,2 h 10 c 0.571297,0 1,0.4287028 1,1 v 8 c 0,0.571297 -0.428703,1 -1,1 H 4 C 3.4287028,17 3,16.571297 3,16 V 8 C 3,7.4287028 3.4287028,7 4,7 Z"
     id="rect1" />
</svg>
