<?xml version="1.0" encoding="UTF-8" standalone="no"?>
<svg
   width="24"
   height="24"
   viewBox="0 0 24 24"
   fill="none"
   stroke="currentColor"
   stroke-width="2"
   stroke-linecap="round"
   stroke-linejoin="round"
   version="1.1"
   id="svg2"
   sodipodi:docname="ds-volume-1-symbolic.svg"
   inkscape:version="1.4.2 (ebf0e940d0, 2025-05-08)"
   xmlns:inkscape="http://www.inkscape.org/namespaces/inkscape"
   xmlns:sodipodi="http://sodipodi.sourceforge.net/DTD/sodipodi-0.dtd"
   xmlns="http://www.w3.org/2000/svg"
   xmlns:svg="http://www.w3.org/2000/svg">
  <defs
     id="defs2" />
  <sodipodi:namedview
     id="namedview2"
     pagecolor="#ffffff"
     bordercolor="#000000"
     borderopacity="0.25"
     inkscape:showpageshadow="2"
     inkscape:pageopacity="0.0"
     inkscape:pagecheckerboard="0"
     inkscape:deskcolor="#d1d1d1"
     inkscape:zoom="32.791667"
     inkscape:cx="11.984752"
     inkscape:cy="12"
     inkscape:window-width="1908"
     inkscape:window-height="1019"
     inkscape:window-x="0"
     inkscape:window-y="0"
     inkscape:window-maximized="0"
     inkscape:current-layer="svg2" />
  <path
     style="baseline-shift:baseline;display:inline;overflow:visible;vector-effect:none;fill:#000000;stroke:none;stroke-linecap:butt;stroke-linejoin:miter;enable-background:accumulate;stop-color:#000000;stop-opacity:1;opacity:1"
     d="M 9.9902344,3.03125 C 9.6621417,3.090213 9.3433375,3.2431174 9.0898438,3.4960938 L 5.7050781,6.8789062 a 1.0001,1.0001 0 0 0 -0.00195,0.00391 C 5.6274753,6.9589145 5.5252734,7.0003145 5.4179687,7 a 1.0001,1.0001 0 0 0 -0.00195,0 H 3 C 1.9072751,7 1,7.9072751 1,9 v 6 c 0,1.092725 0.9072751,2 2,2 h 2.4160156 a 1.0001,1.0001 0 0 0 0.00195,0 c 0.1073047,-3.15e-4 0.2095066,0.04108 0.2851563,0.117187 a 1.0001,1.0001 0 0 0 0.00195,0.002 l 3.3828125,3.384765 C 9.5949726,21.011987 10.365002,21.11632 10.947266,20.875 11.529529,20.63368 12.000998,20.014703 12,19.296875 V 4.7011719 C 11.998964,3.9849153 11.528589,3.3676005 10.947266,3.1269531 10.656604,3.0066294 10.318327,2.972287 9.9902344,3.03125 Z M 10,5.4160156 V 18.585937 L 7.1230469,15.707031 C 6.6711169,15.252399 6.0531459,14.998121 5.4121094,15 H 3 V 9 h 2.4121094 c 0.6395281,0.00187 1.2553943,-0.2524518 1.7070312,-0.7050781 z"
     id="path1" />
  <path
     style="baseline-shift:baseline;display:inline;overflow:visible;vector-effect:none;fill:#000000;stroke:none;stroke-linecap:butt;stroke-linejoin:miter;enable-background:accumulate;stop-color:#000000;stop-opacity:1;opacity:1"
     d="m 16.140625,8.0097656 a 1,1 0 0 0 -0.740234,0.1894532 1,1 0 0 0 -0.201172,1.4003906 c 1.069333,1.4257776 1.069333,3.3750036 0,4.8007816 a 1,1 0 0 0 0.201172,1.40039 1,1 0 0 0 1.40039,-0.201172 c 1.597334,-2.129777 1.597334,-5.069441 0,-7.1992184 a 1,1 0 0 0 -0.660156,-0.390625 z"
     id="path2" />
</svg>
