<?xml version="1.0" encoding="UTF-8" standalone="no"?>
<svg
   width="24"
   height="24"
   viewBox="0 0 24 24"
   fill="none"
   stroke="currentColor"
   stroke-width="2"
   stroke-linecap="round"
   stroke-linejoin="round"
   version="1.1"
   id="svg1"
   sodipodi:docname="ds-bluetooth-symbolic.svg"
   inkscape:version="1.4.2 (ebf0e940d0, 2025-05-08)"
   xmlns:inkscape="http://www.inkscape.org/namespaces/inkscape"
   xmlns:sodipodi="http://sodipodi.sourceforge.net/DTD/sodipodi-0.dtd"
   xmlns="http://www.w3.org/2000/svg"
   xmlns:svg="http://www.w3.org/2000/svg">
  <defs
     id="defs1" />
  <sodipodi:namedview
     id="namedview1"
     pagecolor="#ffffff"
     bordercolor="#000000"
     borderopacity="0.25"
     inkscape:showpageshadow="2"
     inkscape:pageopacity="0.0"
     inkscape:pagecheckerboard="0"
     inkscape:deskcolor="#d1d1d1"
     inkscape:zoom="32.791667"
     inkscape:cx="11.984752"
     inkscape:cy="12"
     inkscape:window-width="1908"
     inkscape:window-height="1019"
     inkscape:window-x="0"
     inkscape:window-y="0"
     inkscape:window-maximized="0"
     inkscape:current-layer="svg1" />
  <path
     style="baseline-shift:baseline;display:inline;overflow:visible;vector-effect:none;fill:#000000;stroke:none;stroke-linecap:butt;stroke-linejoin:miter;enable-background:accumulate;stop-color:#000000;stop-opacity:1;opacity:1"
     d="M 11.617188,1.0761719 A 1.0001,1.0001 0 0 0 11,2 V 9.5859375 L 7.7070312,6.2929687 a 1,1 0 0 0 -1.4140625,0 1,1 0 0 0 0,1.4140625 L 10.585938,12 6.2929687,16.292969 a 1,1 0 0 0 0,1.414062 1,1 0 0 0 1.4140625,0 L 11,14.414063 V 22 a 1.0001,1.0001 0 0 0 1.707031,0.707031 l 5,-5 a 1.0001,1.0001 0 0 0 0,-1.414062 L 13.414063,12 17.707031,7.7070312 a 1.0001,1.0001 0 0 0 0,-1.4140625 l -5,-5 A 1.0001,1.0001 0 0 0 11.617188,1.0761719 Z M 13,4.4140625 15.585938,7 13,9.5859375 Z M 13,14.414063 15.585938,17 13,19.585937 Z"
     id="path1" />
</svg>
