<?xml version="1.0" encoding="UTF-8" standalone="no"?>
<!-- Uploaded to: SVG Repo, www.svgrepo.com, Generator: SVG Repo Mixer Tools -->

<svg
   width="666.74402"
   height="666.74402"
   viewBox="0 0 20.002321 20.002321"
   fill="none"
   version="1.1"
   id="svg1"
   sodipodi:docname="ds-battery-2-symbolic.svg"
   inkscape:version="1.4.2 (ebf0e940d0, 2025-05-08)"
   xmlns:inkscape="http://www.inkscape.org/namespaces/inkscape"
   xmlns:sodipodi="http://sodipodi.sourceforge.net/DTD/sodipodi-0.dtd"
   xmlns="http://www.w3.org/2000/svg"
   xmlns:svg="http://www.w3.org/2000/svg">
  <defs
     id="defs1" />
  <sodipodi:namedview
     id="namedview1"
     pagecolor="#ffffff"
     bordercolor="#000000"
     borderopacity="0.25"
     inkscape:showpageshadow="2"
     inkscape:pageopacity="0.0"
     inkscape:pagecheckerboard="0"
     inkscape:deskcolor="#d1d1d1"
     inkscape:zoom="0.98125"
     inkscape:cx="399.49045"
     inkscape:cy="400"
     inkscape:window-width="1908"
     inkscape:window-height="1019"
     inkscape:window-x="0"
     inkscape:window-y="0"
     inkscape:window-maximized="0"
     inkscape:current-layer="svg1" />
  <path
     style="baseline-shift:baseline;display:inline;overflow:visible;vector-effect:none;fill:#000000;stroke-linecap:round;stroke-linejoin:round;enable-background:accumulate;stop-color:#000000;stop-opacity:1;opacity:1"
     d="m 4.203125,3.1699219 c -1.1201,0 -1.7967462,-0.042774 -2.4863281,0.3085937 C 1.1839676,3.7499919 0.74999192,4.1820145 0.47851563,4.7148437 0.12715069,5.404421 0.16992187,6.0810619 0.16992187,7.2011719 v 5.5996091 c 0,1.1201 -0.0427979,1.796731 0.30859376,2.486328 0.27146764,0.53277 0.70535617,0.966813 1.23828127,1.238282 0.6895818,0.351383 1.3662181,0.308593 2.4863281,0.308593 h 10.599609 c 1.119234,0 1.795327,0.04194 2.484375,-0.308593 0.532866,-0.27146 0.966822,-0.705416 1.238282,-1.238282 0.35141,-0.689602 0.308593,-1.366228 0.308593,-2.486328 v -1.134765 a 0.83217001,0.83217001 0 0 0 0.167969,0.167968 0.83217001,0.83217001 0 0 0 0.832031,-0.832031 V 9.0019531 A 0.83217001,0.83217001 0 0 0 19.001953,8.1699219 0.83217001,0.83217001 0 0 0 18.833984,8.3378906 V 7.2011719 c 0,-1.1201 0.04279,-1.7967416 -0.308593,-2.4863282 C 18.253922,4.1819187 17.821832,3.7499833 17.289062,3.4785156 16.599465,3.1271239 15.922834,3.1699219 14.802734,3.1699219 Z m 0,1.6640625 h 10.599609 c 1.1201,0 1.564467,0.042365 1.730469,0.1269531 0.21983,0.1120124 0.397834,0.2900307 0.509766,0.5097656 0.08461,0.1660535 0.126953,0.6103688 0.126953,1.7304688 v 5.5996091 c 0,1.1201 -0.04236,1.564471 -0.126953,1.730469 -0.11194,0.219734 -0.290031,0.397825 -0.509766,0.509766 -0.165998,0.08459 -0.610369,0.128906 -1.730469,0.128906 H 4.203125 c -1.12011,0 -1.5644106,-0.04429 -1.7304687,-0.128906 C 2.2529213,14.929084 2.0729499,14.75108 1.9609375,14.53125 1.8763492,14.365248 1.8339844,13.920881 1.8339844,12.800781 V 7.2011719 c 0,-1.12011 0.042338,-1.564406 0.1269531,-1.7304688 C 2.0729412,5.2508724 2.2528255,5.0729412 2.4726563,4.9609375 2.6387143,4.8763248 3.083025,4.8339844 4.203125,4.8339844 Z M 5.5019531,7.1699219 A 0.83217001,0.83217001 0 0 0 4.6699219,8.0019531 v 3.9999999 a 0.83217001,0.83217001 0 0 0 0.8320312,0.832031 0.83217001,0.83217001 0 0 0 0.8320313,-0.832031 V 8.0019531 A 0.83217001,0.83217001 0 0 0 5.5019531,7.1699219 Z m 4,0 A 0.83217001,0.83217001 0 0 0 8.6699219,8.0019531 v 3.9999999 a 0.83217001,0.83217001 0 0 0 0.8320312,0.832031 0.83217001,0.83217001 0 0 0 0.8320309,-0.832031 V 8.0019531 A 0.83217001,0.83217001 0 0 0 9.5019531,7.1699219 Z"
     id="path1" />
</svg>
