<?xml version="1.0" encoding="UTF-8" standalone="no"?>
<!-- Uploaded to: SVG Repo, www.svgrepo.com, Generator: SVG Repo Mixer Tools -->

<svg
   width="666.74402"
   height="666.74402"
   viewBox="0 0 20.002321 20.002321"
   fill="none"
   version="1.1"
   id="svg1"
   sodipodi:docname="ds-battery-charging-symbolic.svg"
   inkscape:version="1.4.2 (ebf0e940d0, 2025-05-08)"
   xmlns:inkscape="http://www.inkscape.org/namespaces/inkscape"
   xmlns:sodipodi="http://sodipodi.sourceforge.net/DTD/sodipodi-0.dtd"
   xmlns="http://www.w3.org/2000/svg"
   xmlns:svg="http://www.w3.org/2000/svg">
  <defs
     id="defs1" />
  <sodipodi:namedview
     id="namedview1"
     pagecolor="#ffffff"
     bordercolor="#000000"
     borderopacity="0.25"
     inkscape:showpageshadow="2"
     inkscape:pageopacity="0.0"
     inkscape:pagecheckerboard="0"
     inkscape:deskcolor="#d1d1d1"
     inkscape:zoom="0.98125"
     inkscape:cx="399.49045"
     inkscape:cy="400"
     inkscape:window-width="1908"
     inkscape:window-height="1019"
     inkscape:window-x="0"
     inkscape:window-y="0"
     inkscape:window-maximized="0"
     inkscape:current-layer="svg1" />
  <path
     style="baseline-shift:baseline;display:inline;overflow:visible;vector-effect:none;fill:#000000;stroke-linecap:round;stroke-linejoin:round;enable-background:accumulate;stop-color:#000000;stop-opacity:1;opacity:1"
     d="m 4.203125,3.1757813 c -1.1200991,0 -1.7950955,-0.041625 -2.4824219,0.3085937 C 1.1892227,3.7551644 0.75516404,4.1872691 0.484375,4.71875 0.13415702,5.4060766 0.17773438,6.0810719 0.17773437,7.2011719 v 5.5996091 c 0,1.1201 -0.0436015,1.79508 0.30664063,2.482422 0.27078047,0.531422 0.7047526,0.963594 1.2363281,1.234375 0.6873309,0.350237 1.3623228,0.308594 2.4824219,0.308594 H 4.5019531 A 0.82500005,0.82500005 0 0 0 5.328125,16.001953 0.82500005,0.82500005 0 0 0 4.5019531,15.175781 H 4.203125 c -1.1200991,0 -1.5660667,-0.04119 -1.734375,-0.126953 C 2.2476662,14.936209 2.0677773,14.756335 1.9550781,14.535156 1.8693404,14.366898 1.828125,13.920881 1.828125,12.800781 V 7.2011719 c 0,-1.1201 0.041191,-1.5660616 0.1269531,-1.734375 C 2.0677687,5.2456178 2.247571,5.0677689 2.46875,4.9550781 2.6370629,4.8693165 3.0830259,4.8261719 4.203125,4.8261719 h 1.5 A 0.82500005,0.82500005 0 0 0 6.5273437,4.0019531 0.82500005,0.82500005 0 0 0 5.703125,3.1757813 Z m 10.298828,0 a 0.82500005,0.82500005 0 0 0 -0.824219,0.8261718 0.82500005,0.82500005 0 0 0 0.824219,0.8242188 h 0.300781 c 1.120099,0 1.564164,0.043168 1.732422,0.1289062 0.221178,0.1126992 0.401053,0.2906336 0.513672,0.5117188 0.08576,0.1683088 0.128906,0.614275 0.128906,1.734375 v 5.5996091 c 0,1.1201 -0.04317,1.566122 -0.128906,1.734375 -0.112628,0.221085 -0.292589,0.401045 -0.513672,0.513672 -0.168254,0.08574 -0.612323,0.126953 -1.732422,0.126953 H 13.3125 a 0.82500005,0.82500005 0 0 0 -0.824219,0.826172 0.82500005,0.82500005 0 0 0 0.824219,0.824219 h 1.490234 c 1.120099,0 1.795076,0.04167 2.482422,-0.308594 0.531517,-0.270773 0.963603,-0.702859 1.234375,-1.234375 0.350261,-0.687346 0.308594,-1.362322 0.308594,-2.482422 v -1.148437 a 0.82500005,0.82500005 0 0 0 0.173828,0.173828 0.82500005,0.82500005 0 0 0 0.826172,-0.824219 V 9.0019531 A 0.82500005,0.82500005 0 0 0 19.001953,8.1757813 0.82500005,0.82500005 0 0 0 18.828125,8.3496094 V 7.2011719 c 0,-1.1201 0.04164,-1.7950907 -0.308594,-2.4824219 C 18.248751,4.1871752 17.816578,3.7551561 17.285156,3.484375 16.597815,3.1341329 15.922833,3.1757812 14.802734,3.1757813 Z m -4.162109,0.015625 A 0.82500005,0.82500005 0 0 0 9.8164063,3.5429688 l -4.0000001,6 A 0.82508255,0.82508255 0 0 0 6.5019531,10.826172 H 10.960938 L 7.8164062,15.542969 A 0.82500005,0.82500005 0 0 0 8.0449219,16.6875 0.82500005,0.82500005 0 0 0 9.1894531,16.458984 l 3.9999999,-6 a 0.82508255,0.82508255 0 0 0 -0.6875,-1.2832027 H 8.0449219 L 11.189453,4.4589844 A 0.82500005,0.82500005 0 0 0 10.958984,3.3144531 0.82500005,0.82500005 0 0 0 10.339844,3.1914063 Z"
     id="path1" />
</svg>
