<?xml version="1.0" encoding="UTF-8" standalone="no"?>
<svg
   width="24"
   height="24"
   viewBox="0 0 24 24"
   fill="none"
   stroke="currentColor"
   stroke-width="2"
   stroke-linecap="round"
   stroke-linejoin="round"
   version="1.1"
   id="svg1"
   sodipodi:docname="ds-cloud-symbolic.svg"
   inkscape:version="1.4.2 (ebf0e940d0, 2025-05-08)"
   xmlns:inkscape="http://www.inkscape.org/namespaces/inkscape"
   xmlns:sodipodi="http://sodipodi.sourceforge.net/DTD/sodipodi-0.dtd"
   xmlns="http://www.w3.org/2000/svg"
   xmlns:svg="http://www.w3.org/2000/svg">
  <defs
     id="defs1" />
  <sodipodi:namedview
     id="namedview1"
     pagecolor="#ffffff"
     bordercolor="#000000"
     borderopacity="0.25"
     inkscape:showpageshadow="2"
     inkscape:pageopacity="0.0"
     inkscape:pagecheckerboard="0"
     inkscape:deskcolor="#d1d1d1"
     inkscape:zoom="32.791667"
     inkscape:cx="11.984752"
     inkscape:cy="12"
     inkscape:window-width="1908"
     inkscape:window-height="1019"
     inkscape:window-x="0"
     inkscape:window-y="0"
     inkscape:window-maximized="0"
     inkscape:current-layer="svg1" />
  <path
     style="baseline-shift:baseline;display:inline;overflow:visible;vector-effect:none;fill:#000000;stroke:none;stroke-linecap:butt;stroke-linejoin:miter;enable-background:accumulate;stop-color:#000000;stop-opacity:1;opacity:1"
     d="M 8.2636719,4.0644531 C 6.1319755,4.2412713 4.0489176,5.2591013 2.5878906,7.21875 -1.3081814,12.44448 2.481452,19.998327 9,20 h 8.5 c 1.749999,0 3.189774,-0.692256 4.123047,-1.742188 C 22.556319,17.207881 23,15.847222 23,14.5 23,13.152778 22.556319,11.792119 21.623047,10.742188 20.689774,9.6922556 19.249999,9 17.5,9 H 16.335937 C 14.943819,5.5967603 11.576276,3.789682 8.2636719,4.0644531 Z m 1.7929691,1.9863281 c 2.088051,0.3700997 3.981252,1.8393439 4.695312,4.2343748 A 1.0001,1.0001 0 0 0 15.710938,11 H 17.5 c 1.249999,0 2.060226,0.432744 2.626953,1.070313 C 20.69368,12.707881 21,13.597222 21,14.5 21,15.402778 20.69368,16.292119 20.126953,16.929687 19.560226,17.567256 18.749999,18 17.5,18 H 9 C 4.0015778,17.998717 1.203944,12.421091 4.1914062,8.4140625 5.6851374,6.4105483 7.9685897,5.6806816 10.056641,6.0507812 Z"
     id="path1" />
</svg>
