<?xml version="1.0" encoding="UTF-8" standalone="no"?>
<svg
   width="24"
   height="24"
   viewBox="0 0 24 24"
   fill="none"
   stroke="currentColor"
   stroke-width="2"
   stroke-linecap="round"
   stroke-linejoin="round"
   version="1.1"
   id="svg2"
   sodipodi:docname="ds-cloudy-symbolic.svg"
   inkscape:version="1.4.2 (ebf0e940d0, 2025-05-08)"
   xmlns:inkscape="http://www.inkscape.org/namespaces/inkscape"
   xmlns:sodipodi="http://sodipodi.sourceforge.net/DTD/sodipodi-0.dtd"
   xmlns="http://www.w3.org/2000/svg"
   xmlns:svg="http://www.w3.org/2000/svg">
  <defs
     id="defs2" />
  <sodipodi:namedview
     id="namedview2"
     pagecolor="#ffffff"
     bordercolor="#000000"
     borderopacity="0.25"
     inkscape:showpageshadow="2"
     inkscape:pageopacity="0.0"
     inkscape:pagecheckerboard="0"
     inkscape:deskcolor="#d1d1d1"
     inkscape:zoom="32.791667"
     inkscape:cx="11.984752"
     inkscape:cy="12"
     inkscape:window-width="1908"
     inkscape:window-height="1019"
     inkscape:window-x="0"
     inkscape:window-y="0"
     inkscape:window-maximized="0"
     inkscape:current-layer="svg2" />
  <path
     style="baseline-shift:baseline;display:inline;overflow:visible;vector-effect:none;fill:#000000;stroke:none;stroke-linecap:butt;stroke-linejoin:miter;enable-background:accumulate;stop-color:#000000;stop-opacity:1;opacity:1"
     d="M 8.2636719,6.0644531 C 6.1319755,6.2412713 4.0489176,7.2591013 2.5878906,9.21875 -1.3081814,14.44448 2.481452,21.998327 9,22 h 8.5 c 1.749999,0 3.189774,-0.692256 4.123047,-1.742188 C 22.556319,19.207881 23,17.847222 23,16.5 23,15.152778 22.556319,13.792119 21.623047,12.742188 20.689774,11.692256 19.249999,11 17.5,11 H 16.335937 C 14.943819,7.5967603 11.576276,5.789682 8.2636719,6.0644531 Z m 1.7929691,1.9863282 c 2.088051,0.3700996 3.981252,1.8393438 4.695312,4.2343747 A 1.0001,1.0001 0 0 0 15.710938,13 H 17.5 c 1.249999,0 2.060226,0.432744 2.626953,1.070313 C 20.69368,14.707881 21,15.597222 21,16.5 21,17.402778 20.69368,18.292119 20.126953,18.929687 19.560226,19.567256 18.749999,20 17.5,20 H 9 C 4.0015778,19.998717 1.203944,14.421091 4.1914062,10.414063 5.6851374,8.4105483 7.9685897,7.6806816 10.056641,8.0507813 Z"
     id="path1" />
  <path
     style="baseline-shift:baseline;display:inline;overflow:visible;vector-effect:none;fill:#000000;stroke:none;stroke-linecap:butt;stroke-linejoin:miter;enable-background:accumulate;stop-color:#000000;stop-opacity:1;opacity:1"
     d="M 11.197266,2.0097656 C 8.4514688,2.1380499 5.7201796,4.0172589 5.1074219,7.3183594 A 1,1 0 0 0 5.9082031,8.4824219 1,1 0 0 0 7.0742187,7.6816406 C 7.5228026,5.2649915 9.3486039,4.0985624 11.291016,4.0078125 13.233427,3.9170626 15.16008,4.90914 15.832031,7.2734375 A 1.0001,1.0001 0 0 0 16.792969,8 H 19 c 1.116414,0 2,0.8835859 2,2 a 1,1 0 0 0 1,1 1,1 0 0 0 1,-1 C 23,7.8027056 21.197294,6 19,6 H 17.402344 C 16.267423,3.3017351 13.707369,1.892493 11.197266,2.0097656 Z"
     id="path2" />
</svg>
