<?xml version="1.0" encoding="UTF-8" standalone="no"?>
<svg
   width="24"
   height="24"
   viewBox="0 0 24 24"
   fill="none"
   stroke="currentColor"
   stroke-width="2"
   stroke-linecap="round"
   stroke-linejoin="round"
   version="1.1"
   id="svg1"
   sodipodi:docname="ds-clipboard-symbolic.svg"
   inkscape:version="1.4.2 (ebf0e940d0, 2025-05-08)"
   xmlns:inkscape="http://www.inkscape.org/namespaces/inkscape"
   xmlns:sodipodi="http://sodipodi.sourceforge.net/DTD/sodipodi-0.dtd"
   xmlns="http://www.w3.org/2000/svg"
   xmlns:svg="http://www.w3.org/2000/svg">
  <defs
     id="defs1" />
  <sodipodi:namedview
     id="namedview1"
     pagecolor="#ffffff"
     bordercolor="#000000"
     borderopacity="0.25"
     inkscape:showpageshadow="2"
     inkscape:pageopacity="0.0"
     inkscape:pagecheckerboard="0"
     inkscape:deskcolor="#d1d1d1"
     inkscape:zoom="33.291667"
     inkscape:cx="11.984981"
     inkscape:cy="12"
     inkscape:window-width="1920"
     inkscape:window-height="1031"
     inkscape:window-x="0"
     inkscape:window-y="0"
     inkscape:window-maximized="1"
     inkscape:current-layer="svg1" />
  <path
     style="baseline-shift:baseline;display:inline;overflow:visible;vector-effect:none;fill:#000000;stroke:none;stroke-linecap:butt;stroke-linejoin:miter;enable-background:accumulate;stop-color:#000000;stop-opacity:1;opacity:1"
     d="M 9,1 C 7.9092972,1 7,1.9092972 7,3 v 2 c 0,1.0907028 0.9092972,2 2,2 h 6 c 1.090703,0 2,-0.9092972 2,-2 V 3 C 17,1.9092972 16.090703,1 15,1 Z m 0,2 h 6 V 5 H 9 Z"
     id="rect1" />
  <path
     style="baseline-shift:baseline;display:inline;overflow:visible;vector-effect:none;fill:#000000;stroke:none;stroke-linecap:butt;stroke-linejoin:miter;enable-background:accumulate;stop-color:#000000;stop-opacity:1;opacity:1"
     d="M 6,3 C 4.3549904,3 3,4.3549904 3,6 v 14 c 0,1.64501 1.3549904,3 3,3 h 12 c 1.64501,0 3,-1.35499 3,-3 V 6 C 21,4.3549904 19.64501,3 18,3 h -2 a 1,1 0 0 0 -1,1 1,1 0 0 0 1,1 h 2 c 0.564129,0 1,0.4358706 1,1 v 14 c 0,0.564129 -0.435871,1 -1,1 H 6 C 5.4358706,21 5,20.564129 5,20 V 6 C 5,5.4358706 5.4358706,5 6,5 H 8 A 1,1 0 0 0 9,4 1,1 0 0 0 8,3 Z"
     id="path1" />
</svg>
