<?xml version="1.0" encoding="UTF-8" standalone="no"?>
<svg
   width="24"
   height="24"
   viewBox="0 0 24 24"
   fill="none"
   stroke="currentColor"
   stroke-width="2"
   stroke-linecap="round"
   stroke-linejoin="round"
   version="1.1"
   id="svg1"
   sodipodi:docname="ds-droplet-symbolic.svg"
   inkscape:version="1.4.2 (ebf0e940d0, 2025-05-08)"
   xmlns:inkscape="http://www.inkscape.org/namespaces/inkscape"
   xmlns:sodipodi="http://sodipodi.sourceforge.net/DTD/sodipodi-0.dtd"
   xmlns="http://www.w3.org/2000/svg"
   xmlns:svg="http://www.w3.org/2000/svg">
  <defs
     id="defs1" />
  <sodipodi:namedview
     id="namedview1"
     pagecolor="#ffffff"
     bordercolor="#000000"
     borderopacity="0.25"
     inkscape:showpageshadow="2"
     inkscape:pageopacity="0.0"
     inkscape:pagecheckerboard="0"
     inkscape:deskcolor="#d1d1d1"
     inkscape:zoom="32.791667"
     inkscape:cx="11.984752"
     inkscape:cy="12"
     inkscape:window-width="1908"
     inkscape:window-height="1019"
     inkscape:window-x="0"
     inkscape:window-y="0"
     inkscape:window-maximized="0"
     inkscape:current-layer="svg1" />
  <path
     style="baseline-shift:baseline;display:inline;overflow:visible;vector-effect:none;fill:#000000;stroke:none;stroke-linecap:butt;stroke-linejoin:miter;enable-background:accumulate;stop-color:#000000;stop-opacity:1;opacity:1"
     d="M 12,2 A 1.0001,1.0001 0 0 0 11.019531,2.8046875 C 10.570823,5.0482279 9.1845442,7.2711146 7.375,8.71875 5.2004155,10.458418 4,12.666667 4,15 c 0,4.406433 3.5935666,8 8,8 4.406433,0 8,-3.593567 8,-8 C 20,12.666667 18.799584,10.458418 16.625,8.71875 14.815456,7.2711146 13.429177,5.0482279 12.980469,2.8046875 A 1.0001,1.0001 0 0 0 12,2 Z m 0,3.6542969 c 0.803135,1.7707024 1.871615,3.424245 3.375,4.6269531 C 17.200416,11.741582 18,13.333333 18,15 18,18.325553 15.325553,21 12,21 8.6744469,21 6,18.325553 6,15 6,13.333333 6.7995845,11.741582 8.625,10.28125 10.128385,9.0785419 11.196865,7.4249993 12,5.6542969 Z"
     id="path1" />
</svg>
