<?xml version="1.0" encoding="UTF-8" standalone="no"?>
<svg
   width="24"
   height="24"
   viewBox="0 0 24 24"
   fill="none"
   stroke="currentColor"
   stroke-width="2"
   stroke-linecap="round"
   stroke-linejoin="round"
   version="1.1"
   id="svg1"
   sodipodi:docname="ds-map-pin-symbolic.svg"
   inkscape:version="1.4.2 (ebf0e940d0, 2025-05-08)"
   xmlns:inkscape="http://www.inkscape.org/namespaces/inkscape"
   xmlns:sodipodi="http://sodipodi.sourceforge.net/DTD/sodipodi-0.dtd"
   xmlns="http://www.w3.org/2000/svg"
   xmlns:svg="http://www.w3.org/2000/svg">
  <defs
     id="defs1" />
  <sodipodi:namedview
     id="namedview1"
     pagecolor="#ffffff"
     bordercolor="#000000"
     borderopacity="0.25"
     inkscape:showpageshadow="2"
     inkscape:pageopacity="0.0"
     inkscape:pagecheckerboard="0"
     inkscape:deskcolor="#d1d1d1"
     inkscape:zoom="32.791667"
     inkscape:cx="11.984752"
     inkscape:cy="12"
     inkscape:window-width="1908"
     inkscape:window-height="1019"
     inkscape:window-x="0"
     inkscape:window-y="0"
     inkscape:window-maximized="0"
     inkscape:current-layer="svg1" />
  <path
     style="baseline-shift:baseline;display:inline;overflow:visible;vector-effect:none;fill:#000000;stroke:none;stroke-linecap:butt;stroke-linejoin:miter;enable-background:accumulate;stop-color:#000000;stop-opacity:1;opacity:1"
     d="m 12,1 c -4.9587171,0 -9,4.0412792 -9,9 0,2.866284 1.5230369,5.562821 3.2070312,7.775391 1.6839944,2.212569 3.5766265,3.950243 4.5390628,4.78125 a 1.0001,1.0001 0 0 0 0.05273,0.04102 c 0.708338,0.532639 1.694006,0.532639 2.402344,0 a 1.0001,1.0001 0 0 0 0.05273,-0.04102 c 0.962436,-0.831007 2.855068,-2.568681 4.539063,-4.78125 C 19.476963,15.562821 21,12.866284 21,10 21,5.0412792 16.958717,1 12,1 Z m 0,2 c 3.877839,0 7,3.1221588 7,7 0,2.126716 -1.246369,4.527272 -2.796875,6.564453 C 14.671685,18.576584 12.908437,20.201254 12,20.988281 11.091563,20.201254 9.3283149,18.576584 7.796875,16.564453 6.2463693,14.527272 5,12.126716 5,10 5,6.1221588 8.1221613,3 12,3 Z"
     id="path1" />
  <path
     style="baseline-shift:baseline;display:inline;overflow:visible;vector-effect:none;fill:#000000;stroke:none;stroke-linecap:butt;stroke-linejoin:miter;enable-background:accumulate;stop-color:#000000;stop-opacity:1;opacity:1"
     d="m 12,6 c -2.1972944,0 -4,1.8027056 -4,4 0,2.197294 1.8027056,4 4,4 2.197294,0 4,-1.802706 4,-4 0,-2.1972944 -1.802706,-4 -4,-4 z m 0,2 c 1.116414,0 2,0.8835859 2,2 0,1.116414 -0.883586,2 -2,2 -1.116414,0 -2,-0.883586 -2,-2 0,-1.1164141 0.883586,-2 2,-2 z"
     id="circle1" />
</svg>
