<?xml version="1.0" encoding="UTF-8" standalone="no"?>
<svg
   width="24"
   height="24"
   viewBox="0 0 24 24"
   fill="none"
   stroke="currentColor"
   stroke-width="2"
   stroke-linecap="round"
   stroke-linejoin="round"
   version="1.1"
   id="svg1"
   sodipodi:docname="ds-moon-symbolic.svg"
   inkscape:version="1.4.2 (ebf0e940d0, 2025-05-08)"
   xmlns:inkscape="http://www.inkscape.org/namespaces/inkscape"
   xmlns:sodipodi="http://sodipodi.sourceforge.net/DTD/sodipodi-0.dtd"
   xmlns="http://www.w3.org/2000/svg"
   xmlns:svg="http://www.w3.org/2000/svg">
  <defs
     id="defs1" />
  <sodipodi:namedview
     id="namedview1"
     pagecolor="#ffffff"
     bordercolor="#000000"
     borderopacity="0.25"
     inkscape:showpageshadow="2"
     inkscape:pageopacity="0.0"
     inkscape:pagecheckerboard="0"
     inkscape:deskcolor="#d1d1d1"
     inkscape:zoom="32.791667"
     inkscape:cx="11.984752"
     inkscape:cy="12"
     inkscape:window-width="1908"
     inkscape:window-height="1019"
     inkscape:window-x="0"
     inkscape:window-y="0"
     inkscape:window-maximized="0"
     inkscape:current-layer="svg1" />
  <path
     style="baseline-shift:baseline;display:inline;overflow:visible;vector-effect:none;fill:#000000;stroke:none;stroke-linecap:butt;stroke-linejoin:miter;enable-background:accumulate;stop-color:#000000;stop-opacity:1;opacity:1"
     d="M 11.457031,2.015625 C 7.1755352,2.2472042 3.9735663,4.9950179 2.6601563,8.4257813 1.3467462,11.856545 1.8959123,16.040764 4.9277344,19.072266 c 3.031822,3.031502 7.2158596,3.58135 10.6464846,2.267578 3.429552,-1.313362 6.177529,-4.517366 6.410156,-8.796875 3.6e-5,-6.69e-4 -3.6e-5,-0.0013 0,-0.002 3.6e-5,-6.56e-4 -3.5e-5,-0.0013 0,-0.002 a 1,1 0 0 0 -0.002,-0.0059 c 0.02878,-0.602825 -0.370254,-1.162713 -0.832031,-1.382812 -0.463922,-0.221122 -1.023734,-0.210509 -1.498047,0.08594 -2.316208,1.447658 -4.656383,0.826039 -6.185547,-0.703125 C 11.937633,9.0040394 11.314061,6.6638641 12.761719,4.3476562 13.059729,3.8722264 13.069066,3.3110311 12.847656,2.8476563 12.626246,2.3842814 12.063926,1.9826579 11.457031,2.015625 Z M 10.703125,4.1875 c -1.2807234,2.8408522 -0.548941,5.861215 1.349609,7.759766 1.898169,1.898169 4.917456,2.631173 7.757813,1.351562 -0.484917,3.014544 -2.434922,5.208267 -4.951172,6.171875 -2.763192,1.058176 -6.0437988,0.661018 -8.5175781,-1.8125 C 3.8680176,15.184685 3.4694592,11.903929 4.5273437,9.140625 5.4910957,6.6232049 7.6866169,4.67163 10.703125,4.1875 Z"
     id="path1" />
</svg>
