<?xml version="1.0" encoding="UTF-8" standalone="no"?>
<svg
   width="32"
   height="32"
   viewBox="0 0 24 24"
   fill="none"
   stroke="currentColor"
   stroke-width="2"
   stroke-linecap="round"
   stroke-linejoin="round"
   class="feather feather-mic-off"
   version="1.1"
   id="svg3"
   sodipodi:docname="ds-mic-off-symbolic.svg"
   inkscape:version="1.4.2 (ebf0e940d0, 2025-05-08)"
   xmlns:inkscape="http://www.inkscape.org/namespaces/inkscape"
   xmlns:sodipodi="http://sodipodi.sourceforge.net/DTD/sodipodi-0.dtd"
   xmlns="http://www.w3.org/2000/svg"
   xmlns:svg="http://www.w3.org/2000/svg">
  <defs
     id="defs3" />
  <sodipodi:namedview
     id="namedview3"
     pagecolor="#ffffff"
     bordercolor="#000000"
     borderopacity="0.25"
     inkscape:showpageshadow="2"
     inkscape:pageopacity="0.0"
     inkscape:pagecheckerboard="0"
     inkscape:deskcolor="#d1d1d1"
     inkscape:zoom="24.59375"
     inkscape:cx="15.97967"
     inkscape:cy="16"
     inkscape:window-width="1908"
     inkscape:window-height="1019"
     inkscape:window-x="0"
     inkscape:window-y="0"
     inkscape:window-maximized="0"
     inkscape:current-layer="svg3" />
  <path
     style="baseline-shift:baseline;display:inline;overflow:visible;vector-effect:none;fill:#000000;stroke:none;stroke-linecap:butt;stroke-linejoin:miter;enable-background:accumulate;stop-color:#000000;stop-opacity:1;opacity:1"
     d="m 0.29296875,0.29296875 a 1,1 0 0 0 0,1.41406245 L 22.292969,23.707031 a 1,1 0 0 0 1.414062,0 1,1 0 0 0 0,-1.414062 L 1.7070312,0.29296875 a 1,1 0 0 0 -1.41406245,0 z"
     id="line1" />
  <path
     style="baseline-shift:baseline;display:inline;overflow:visible;vector-effect:none;fill:#000000;stroke:none;stroke-linecap:butt;stroke-linejoin:miter;enable-background:accumulate;stop-color:#000000;stop-opacity:1;opacity:1"
     d="M 12.402344,0.01757813 C 10.581058,-0.16639011 8.5359761,0.95598881 8.0800781,3.2011719 a 1,1 0 0 0 0.78125,1.1796875 1,1 0 0 0 1.1777349,-0.78125 C 10.30352,2.2972223 11.231637,1.9098797 12.201172,2.0078125 13.170707,2.1057453 14.001336,2.6690819 14,3.9980469 A 1.0001,1.0001 0 0 0 14,4 v 5.3398438 a 1,1 0 0 0 1,1.0000002 1,1 0 0 0 1,-1.0000002 V 4.0019531 4 C 16.001231,1.7101585 14.223082,0.20149104 12.402344,0.01757813 Z M 9,8 A 1,1 0 0 0 8,9 v 3 c 0.00153,1.738053 1.0909037,3.122036 2.470703,3.693359 1.3798,0.571324 3.125715,0.362991 4.355469,-0.865234 a 1,1 0 0 0 0.002,-1.414062 1,1 0 0 0 -1.414062,-0.002 c -0.65978,0.65896 -1.472458,0.726432 -2.179688,0.433594 C 10.527145,13.552866 10.00082,12.932489 10,12 V 9 A 1,1 0 0 0 9,8 Z"
     id="path1" />
  <path
     style="baseline-shift:baseline;display:inline;overflow:visible;vector-effect:none;fill:#000000;stroke:none;stroke-linecap:butt;stroke-linejoin:miter;enable-background:accumulate;stop-color:#000000;stop-opacity:1;opacity:1"
     d="m 5,9 a 1,1 0 0 0 -1,1 v 1.992188 c -0.025998,3.55351 2.1555364,6.302684 4.9492188,7.455078 2.7936822,1.152394 6.2787162,0.74151 8.7656252,-1.796875 A 1,1 0 0 0 17.699219,16.236328 1,1 0 0 0 16.285156,16.25 C 14.366115,18.208763 11.827282,18.470649 9.7109375,17.597656 7.5945926,16.724664 5.9799384,14.749905 6,12.007813 A 1.0001,1.0001 0 0 0 6,12 V 10 A 1,1 0 0 0 5,9 Z m 14,0 a 1,1 0 0 0 -1,1 v 2 c -3.08e-4,0.35352 -0.03132,0.704769 -0.09375,1.052734 a 1,1 0 0 0 0.806641,1.16211 A 1,1 0 0 0 19.875,13.40625 C 19.958235,12.942297 19.999589,12.47136 20,12 V 10 A 1,1 0 0 0 19,9 Z"
     id="path2" />
  <path
     style="baseline-shift:baseline;display:inline;overflow:visible;vector-effect:none;fill:#000000;stroke:none;stroke-linecap:butt;stroke-linejoin:miter;enable-background:accumulate;stop-color:#000000;stop-opacity:1;opacity:1"
     d="m 12,18 a 1,1 0 0 0 -1,1 v 4 a 1,1 0 0 0 1,1 1,1 0 0 0 1,-1 v -4 a 1,1 0 0 0 -1,-1 z"
     id="line2" />
  <path
     style="baseline-shift:baseline;display:inline;overflow:visible;vector-effect:none;fill:#000000;stroke:none;stroke-linecap:butt;stroke-linejoin:miter;enable-background:accumulate;stop-color:#000000;stop-opacity:1;opacity:1"
     d="m 8,22 a 1,1 0 0 0 -1,1 1,1 0 0 0 1,1 h 8 a 1,1 0 0 0 1,-1 1,1 0 0 0 -1,-1 z"
     id="line3" />
</svg>
