<?xml version="1.0" encoding="UTF-8" standalone="no"?>
<svg
   width="24"
   height="24"
   viewBox="0 0 24 24"
   fill="none"
   stroke="currentColor"
   stroke-width="2"
   stroke-linecap="round"
   stroke-linejoin="round"
   version="1.1"
   id="svg2"
   sodipodi:docname="ds-power-symbolic.svg"
   inkscape:version="1.4.2 (ebf0e940d0, 2025-05-08)"
   xmlns:inkscape="http://www.inkscape.org/namespaces/inkscape"
   xmlns:sodipodi="http://sodipodi.sourceforge.net/DTD/sodipodi-0.dtd"
   xmlns="http://www.w3.org/2000/svg"
   xmlns:svg="http://www.w3.org/2000/svg">
  <defs
     id="defs2" />
  <sodipodi:namedview
     id="namedview2"
     pagecolor="#ffffff"
     bordercolor="#000000"
     borderopacity="0.25"
     inkscape:showpageshadow="2"
     inkscape:pageopacity="0.0"
     inkscape:pagecheckerboard="0"
     inkscape:deskcolor="#d1d1d1"
     inkscape:zoom="32.791667"
     inkscape:cx="11.984752"
     inkscape:cy="12"
     inkscape:window-width="1908"
     inkscape:window-height="1019"
     inkscape:window-x="0"
     inkscape:window-y="0"
     inkscape:window-maximized="0"
     inkscape:current-layer="svg2" />
  <path
     style="baseline-shift:baseline;display:inline;overflow:visible;vector-effect:none;fill:#000000;stroke:none;stroke-linecap:butt;stroke-linejoin:miter;enable-background:accumulate;stop-color:#000000;stop-opacity:1;opacity:1"
     d="m 12,1 a 1,1 0 0 0 -1,1 v 10 a 1,1 0 0 0 1,1 1,1 0 0 0 1,-1 V 2 A 1,1 0 0 0 12,1 Z"
     id="path1" />
  <path
     style="baseline-shift:baseline;display:inline;overflow:visible;vector-effect:none;fill:#000000;stroke:none;stroke-linecap:butt;stroke-linejoin:miter;enable-background:accumulate;stop-color:#000000;stop-opacity:1;opacity:1"
     d="m 18.400391,5.5996094 a 1,1 0 0 0 -0.707032,0.2929687 1,1 0 0 0 0,1.4140625 c 2.544891,2.5458274 2.888782,5.9134774 1.736328,8.7070314 -1.152453,2.793553 -3.769967,4.937945 -7.36914,4.949219 C 8.4613734,20.974164 5.8281348,18.844873 4.6582031,16.058594 3.4882714,13.272315 3.812905,9.9035171 6.3417969,7.3417969 A 1,1 0 0 0 6.3320312,5.9277344 1,1 0 0 0 4.9179687,5.9375 c -3.0943915,3.1345609 -3.5551043,7.439418 -2.1035156,10.896484 1.4515888,3.457066 4.8478103,6.142702 9.2519529,6.128907 4.404143,-0.0138 7.782988,-2.721409 9.212891,-6.1875 C 22.7092,13.309299 22.22139,9.0076923 19.107422,5.8925781 A 1,1 0 0 0 18.400391,5.5996094 Z"
     id="path2" />
</svg>
